<?xml version="1.0" encoding="utf-8"?>
<!-- Generator: Adobe Illustrator 27.5.0, SVG Export Plug-In . SVG Version: 6.00 Build 0)  -->
<svg version="1.1" xmlns="http://www.w3.org/2000/svg" xmlns:xlink="http://www.w3.org/1999/xlink" x="0px" y="0px"
	viewBox="0 0 500 500" style="enable-background:new 0 0 500 500;" xml:space="preserve">
	<g id="Background_complete">
		<g>
			<g>
				<g>
					<g>
						<!-- <path style="fill:#F0F0F0;" d="M444.708,349.145H263.962c-3.232,0-5.862-2.63-5.862-5.862V80.009
						c0-3.232,2.63-5.862,5.862-5.862h180.746c3.232,0,5.862,2.629,5.862,5.862v263.273
						C450.57,346.515,447.94,349.145,444.708,349.145z M263.962,74.397c-3.095,0-5.612,2.518-5.612,5.612v263.273
						c0,3.095,2.518,5.612,5.612,5.612h180.746c3.095,0,5.612-2.518,5.612-5.612V80.009c0-3.094-2.518-5.612-5.612-5.612H263.962z"
						/> -->
					</g>
				</g>
				<g>
					<g>
						<!-- <path style="fill:#F0F0F0;" d="M236.28,349.145H55.534c-3.232,0-5.862-2.63-5.862-5.862V80.009
						c0-3.232,2.629-5.862,5.862-5.862H236.28c3.232,0,5.862,2.629,5.862,5.862v263.273
						C242.143,346.515,239.513,349.145,236.28,349.145z M55.534,74.397c-3.094,0-5.612,2.518-5.612,5.612v263.273
						c0,3.095,2.518,5.612,5.612,5.612H236.28c3.095,0,5.612-2.518,6.345-6.168V79.454c-0.732-2.539-3.25-5.056-6.345-5.056H55.534z
						"/> -->
					</g>
				</g>
			</g>
			<g>
				<g>
					<!-- <rect x="0" y="410.214" style="fill:#F0F0F0;" width="500" height="0.25" /> -->
				</g>
			</g>
		</g>
		<g>
			<g>
				<g>
					<g>
						<g>
							<g>
								<g>
									<g>
										<g>
											<g>
												<g>
													<path style="fill:#F0F0F0;" d="M84.038,387.04c0,0-8.676,1.922-7.387-4.131c1.289-6.054,1.194-8.286-2.332-11.037
													c-3.526-2.751-7.075-4.111-4.374-8.467c2.7-4.357-2.423-7.743-5.071-10.088c-2.648-2.345,0.341-4.113,1.042-8.546
													c0.701-4.433-4.067-3.767-4.442-9.351c-0.375-5.583,5.297-12.109,0.421-19.794c0,0,6.55,3.397,8.702,9.364
													c2.152,5.967,0.415,10.576,4.284,12.844c3.869,2.268,6.292,6.191,4.977,10.217c-1.315,4.026,0.553,6.161,3.725,9.098
													c3.172,2.936,2.327,4.103,1.933,7.693c-0.395,3.59,0.398,2.741,4.029,7.646C93.178,377.393,93.27,385.431,84.038,387.04
													z" />
												</g>
											</g>
										</g>
									</g>
								</g>
							</g>
							<g>
								<g>
									<path style="fill:#E0E0E0;" d="M85.274,386.772c-0.018-0.029-0.033-0.059-0.044-0.094l-17.361-52.693
									c-0.075-0.226,0.049-0.47,0.274-0.545c0.003-0.001,0.006-0.002,0.008-0.003c0.224-0.07,0.465,0.054,0.538,0.278
									l17.36,52.692c0.015,0.042,0.021,0.086,0.022,0.129L85.274,386.772z" />
								</g>
							</g>
						</g>
						<g>
							<g>
								<g>
									<g>
										<path style="fill:#F0F0F0;" d="M99.694,386.931c0,0,8.63,1.912,7.348-4.109c-1.282-6.021-1.188-8.241,2.319-10.978
										c3.508-2.737,7.037-4.089,4.351-8.422c-2.686-4.333,2.41-7.702,5.044-10.034c2.634-2.333-0.34-4.092-1.037-8.501
										c-0.698-4.409,4.046-3.747,4.418-9.301c0.372-5.554-5.27-12.045-0.419-19.689c0,0-6.516,3.379-8.656,9.314
										c-2.14,5.935-0.412,10.52-4.261,12.776c-3.849,2.256-6.259,6.158-4.951,10.163c1.308,4.005-0.55,6.128-3.706,9.049
										c-3.155,2.921-2.315,4.082-1.923,7.652c0.393,3.571-0.396,2.727-4.008,7.606C90.602,377.335,90.51,385.331,99.694,386.931z
										" />
									</g>
								</g>
							</g>
							<g>
								<g>
									<g>
										<g>
											<g>
												<path style="fill:#E0E0E0;" d="M97.67,386.43c0.001-0.043,0.007-0.086,0.022-0.128l17.268-52.412
												c0.074-0.223,0.313-0.346,0.536-0.276c0.003,0.001,0.006,0.002,0.008,0.003c0.224,0.074,0.347,0.318,0.273,0.542
												l-17.268,52.414c-0.011,0.034-0.026,0.064-0.044,0.093L97.67,386.43z" />
											</g>
										</g>
									</g>
								</g>
							</g>
						</g>
						<g>
							<g>
								<g>
									<path style="fill:#F5F5F5;" d="M90.11,385.835c0,0-9.931-0.822-6.54-6.878c3.391-6.056,4.031-8.478,1.168-12.596
									c-2.863-4.118-6.213-6.752-1.874-10.522c4.339-3.77-0.024-9.098-2.081-12.49c-2.057-3.391,1.731-4.292,3.955-8.807
									c2.223-4.515-3.106-5.385-1.652-11.49c1.453-6.105,9.696-11.21,7.024-21.061c0,0,5.888,5.814,6.211,12.919
									c0.323,7.105-3.068,11.466,0.323,15.18c3.391,3.714,4.683,8.72,1.938,12.596c-2.745,3.876-1.453,6.783,0.969,10.981
									c2.422,4.199,1.13,5.168-0.485,8.882c-1.615,3.714-0.484,3.068,1.776,9.528C103.104,378.538,100.533,387.177,90.11,385.835z
									" />
								</g>
							</g>
							<g>
								<g>
									<g>
										<g>
											<g>
												<path style="fill:#E0E0E0;" d="M91.523,385.958c-0.01-0.037-0.016-0.074-0.016-0.115l-1.095-62.204
												c-0.005-0.266,0.208-0.488,0.475-0.492c0.003,0,0.007,0,0.01,0c0.263,0,0.48,0.211,0.485,0.476l1.095,62.202
												c0.002,0.05-0.006,0.099-0.019,0.146L91.523,385.958z" />
											</g>
										</g>
									</g>
								</g>
							</g>
						</g>
						<g>
							<g>
								<path style="fill:#E6E6E6;" d="M117.152,381.03H68.58c-1.397,0-2.363,1.395-1.87,2.702l0.719,1.907l0.454,1.208l1.304,3.461
								l0.456,1.208l1.339,3.554l0.454,1.207l5.343,14.187h32.175l5.343-14.187l0.454-1.207l1.339-3.554l0.456-1.208l1.304-3.461
								l0.454-1.208l0.719-1.907C119.513,382.425,118.548,381.03,117.152,381.03z" />
							</g>
						</g>
					</g>
				</g>
			</g>
		</g>
		<g>
			<g>
				<path style="fill:#F5F5F5;" d="M81.984,282.618h31.571c0.828,0,1.5-0.672,1.5-1.5v-7.127c0-0.828-0.672-1.5-1.5-1.5H81.984
				c-0.828,0-1.5,0.672-1.5,1.5v7.127C80.484,281.947,81.156,282.618,81.984,282.618z" />
			</g>
			<path style="fill:#F5F5F5;" d="M63.127,295.534h31.571c0.828,0,1.5-0.672,1.5-1.5v-7.127c0-0.828-0.672-1.5-1.5-1.5H63.127
			c-0.829,0-1.5,0.672-1.5,1.5v7.127C61.627,294.862,62.299,295.534,63.127,295.534z" />
		</g>
		<g>
			<path style="fill:#F5F5F5;" d="M300.357,266.752h-31.571c-0.828,0-1.5-0.672-1.5-1.5v-7.127c0-0.828,0.672-1.5,1.5-1.5h31.571
			c0.828,0,1.5,0.672,1.5,1.5v7.127C301.857,266.081,301.185,266.752,300.357,266.752z" />
			<path style="fill:#F5F5F5;" d="M319.214,279.668h-31.571c-0.828,0-1.5-0.672-1.5-1.5v-7.127c0-0.828,0.672-1.5,1.5-1.5h31.571
			c0.828,0,1.5,0.672,1.5,1.5v7.127C320.714,278.996,320.042,279.668,319.214,279.668z" />
		</g>
		<g>
			<path style="fill:#F5F5F5;" d="M215.156,191.723h-31.571c-0.828,0-1.5-0.672-1.5-1.5v-7.127c0-0.828,0.672-1.5,1.5-1.5h31.571
			c0.828,0,1.5,0.672,1.5,1.5v7.127C216.656,191.052,215.985,191.723,215.156,191.723z" />
			<path style="fill:#F5F5F5;" d="M234.013,204.639h-31.571c-0.828,0-1.5-0.672-1.5-1.5v-7.127c0-0.828,0.672-1.5,1.5-1.5h31.571
			c0.828,0,1.5,0.672,1.5,1.5v7.127C235.513,203.967,234.842,204.639,234.013,204.639z" />
		</g>
		<g>
			<g>
				<path style="fill:#F5F5F5;" d="M186.871,118.855H155.3c-0.828,0-1.5-0.672-1.5-1.5v-7.127c0-0.829,0.672-1.5,1.5-1.5h31.571
				c0.828,0,1.5,0.671,1.5,1.5v7.127C188.371,118.184,187.699,118.855,186.871,118.855z" />
				<path style="fill:#F5F5F5;" d="M224.585,118.855h-31.571c-0.828,0-1.5-0.672-1.5-1.5v-7.127c0-0.829,0.672-1.5,1.5-1.5h31.571
				c0.828,0,1.5,0.671,1.5,1.5v7.127C226.085,118.184,225.413,118.855,224.585,118.855z" />
			</g>
			<path style="fill:#F5F5F5;" d="M205.728,131.771h-31.571c-0.829,0-1.5-0.672-1.5-1.5v-7.127c0-0.828,0.671-1.5,1.5-1.5h31.571
			c0.828,0,1.5,0.672,1.5,1.5v7.127C207.228,131.099,206.556,131.771,205.728,131.771z" />
		</g>
		<g>
			<rect x="356.874" y="97.57" style="fill:#E6E6E6;" width="75.021" height="75.021" />

			<rect x="360.672" y="101.368" transform="matrix(-1.836970e-16 1 -1 -1.836970e-16 529.465 -259.3042)"
				style="fill:#FAFAFA;" width="67.426" height="67.425" />
			<path style="fill:#F0F0F0;"
				d="M389.865,153.481c0,0,12.381-25.384,38.232-25.892v41.205h-33.713L389.865,153.481z" />
			<path style="fill:#F5F5F5;" d="M360.672,146.354c0,0,11.133-5.836,22.449-1.552c14.21,5.38,22.449,23.992,22.449,23.992h-44.898
			V146.354z" />
			<path style="fill:#FFFFFF;" d="M395.698,122.743c0,6.57-5.326,11.896-11.896,11.896c-6.57,0-11.896-5.326-11.896-11.896
			s5.326-11.896,11.896-11.896C390.372,110.846,395.698,116.173,395.698,122.743z" />
		</g>
		<g>
			<rect x="66.571" y="97.725" style="fill:#E6E6E6;" width="69.327" height="134.214" />

			<rect x="38.127" y="134.169" transform="matrix(-1.836970e-16 1 -1 -1.836970e-16 266.0665 63.598)"
				style="fill:#FAFAFA;" width="126.214" height="61.327" />
			<circle style="fill:#FFFFFF;" cx="91.806" cy="140.835" r="12.53" />
			<path style="fill:#F0F0F0;" d="M82.035,227.939c0,0,15.521-74.63,49.862-81.331v81.331h-30.663H82.035z" />
			<path style="fill:#F5F5F5;" d="M70.571,183.648c0,0,7.901-7.618,20.418-3.064c23.522,8.558,36.651,47.355,36.651,47.355H70.571
			V183.648z" />
		</g>
		<g>
			<g>
				<g>
					<g>
						<g>
							<g>
								<polygon style="fill:#F5F5F5;"
									points="432.479,397.672 438.137,313.264 373.001,313.264 378.66,397.672 							" />
							</g>
						</g>
					</g>
					<g>
						<g>
							<g>
								<polygon style="fill:#E6E6E6;"
									points="437.595,321.204 373.796,324.88 373.339,318.192 437.8,318.192 							" />
							</g>
						</g>
					</g>
					<g>
						<g>
							<path style="fill:#F5F5F5;" d="M441.605,318.192h-72.072c-0.242,0-0.439-0.196-0.439-0.439v-6.516
							c0-0.242,0.197-0.439,0.439-0.439h72.072c0.242,0,0.439,0.196,0.439,0.439v6.516
							C442.044,317.996,441.848,318.192,441.605,318.192z" />
						</g>
					</g>
					<g>
						<g>
							<g>
								<polygon style="fill:#E6E6E6;"
									points="430.841,331.772 429.24,359.99 381.899,359.99 380.298,331.772 							" />
							</g>
						</g>
					</g>
					<g>
						<g>
							<g>
								<path style="fill:#E0E0E0;" d="M407.932,347.045c0,1.305-1.058,2.363-2.363,2.363s-2.363-1.058-2.363-2.363
								c0-1.305,1.058-2.363,2.363-2.363S407.932,345.74,407.932,347.045z" />
							</g>
						</g>
					</g>
					<g>
						<g>
							<g>
								<polygon style="fill:#E6E6E6;"
									points="428.613,366.599 427.153,392.329 383.986,392.329 382.526,366.599 							" />
							</g>
						</g>
					</g>
					<g>
						<g>
							<g>
								<path style="fill:#E0E0E0;" d="M407.932,380.399c0,1.305-1.058,2.363-2.363,2.363s-2.363-1.058-2.363-2.363
								c0-1.305,1.058-2.363,2.363-2.363S407.932,379.094,407.932,380.399z" />
							</g>
						</g>
					</g>
					<g>
						<g>
							<g>
								<g>
									<path style="fill:#E6E6E6;" d="M398.629,397.673c-0.129,0-0.257,0.001-0.383,0.002c-6.533,0.086-12.136,4.587-13.591,10.811
									l-0.404,1.728h-5.06l-0.487-12.542H398.629z" />
								</g>
							</g>
						</g>
						<g>
							<g>
								<g>
									<path style="fill:#E6E6E6;" d="M412.527,397.673c0.129,0,0.257,0.001,0.383,0.002c6.533,0.086,12.136,4.587,13.591,10.811
									l0.404,1.728h5.038l0.509-12.542H412.527z" />
								</g>
							</g>
						</g>
					</g>
				</g>
			</g>
			<g>
				<g>
					<g>
						<g>
							<g>
								<g>
									<path style="fill:#F0F0F0;" d="M392.602,268.622c0,0-5.707,1.625-12.002-6.533c-4.55-5.896-12.603-18.478-23.715-18.693
									c0,0,13.187-5.715,24.825,0.106C393.346,249.323,399.556,264.389,392.602,268.622" />
								</g>
							</g>
							<g>
								<g>
									<path style="fill:#E0E0E0;" d="M396.003,292.177c-0.005,0-0.01,0-0.015,0c-0.166-0.008-0.294-0.15-0.286-0.316
									c0.004-0.078,0.37-7.948-1.195-16.906c-1.438-8.232-4.846-19.097-12.917-24.106c-0.142-0.088-0.185-0.274-0.097-0.415
									c0.088-0.142,0.274-0.185,0.415-0.097c3.657,2.269,6.689,5.874,9.011,10.716c1.85,3.856,3.258,8.502,4.184,13.81
									c1.574,9.023,1.205,16.95,1.201,17.029C396.296,292.052,396.162,292.177,396.003,292.177z" />
								</g>
							</g>
						</g>
						<g>
							<g>
								<g>
									<path style="fill:#F0F0F0;" d="M396.923,250.658c0,0,5.778-1.353,7.315-11.542c1.112-7.364,2.036-22.274,11.643-27.862
									c0,0-14.302,1.413-21.645,12.156C386.894,234.153,388.788,250.338,396.923,250.658" />
								</g>
							</g>
							<g>
								<g>
									<path style="fill:#E0E0E0;" d="M404.873,292.843c-0.123,0-0.238-0.076-0.283-0.198c-0.038-0.105-3.845-10.601-6.624-23.552
									c-1.633-7.611-2.597-14.57-2.865-20.684c-0.336-7.662,0.425-14.017,2.264-18.889c0.059-0.156,0.233-0.234,0.388-0.176
									c0.156,0.059,0.234,0.233,0.176,0.388c-4.105,10.875-1.926,27.334,0.625,39.226c2.77,12.911,6.564,23.374,6.602,23.479
									c0.057,0.156-0.023,0.329-0.18,0.387C404.943,292.837,404.908,292.843,404.873,292.843z" />
								</g>
							</g>
						</g>
						<g>
							<g>
								<g>
									<path style="fill:#F0F0F0;" d="M407.028,255.647c0,0,5.879,0.803,10.959-8.163c3.671-6.48,9.866-20.073,20.836-21.856
									c0,0-13.862-3.794-24.56,3.612C403.564,236.646,399.546,252.439,407.028,255.647" />
								</g>
							</g>
							<g>
								<g>
									<path style="fill:#E0E0E0;" d="M407.928,292.842c-0.141,0-0.267-0.099-0.295-0.243c-0.019-0.099-1.943-10.002-2-21.847
									c-0.033-6.963,0.576-13.228,1.81-18.62c1.548-6.762,4.09-12.168,7.556-16.068c0.111-0.124,0.301-0.136,0.426-0.025
									c0.124,0.111,0.136,0.301,0.025,0.426c-7.708,8.673-9.265,23.431-9.214,34.284c0.056,11.788,1.969,21.635,1.988,21.733
									c0.032,0.163-0.074,0.322-0.237,0.354C407.967,292.841,407.948,292.842,407.928,292.842z" />
								</g>
							</g>
						</g>
						<g>
							<g>
								<g>
									<path style="fill:#F0F0F0;" d="M417.129,269.36c0,0,5.602,1.955,12.362-5.823c4.886-5.621,13.658-17.712,24.764-17.28
									c0,0-12.832-6.473-24.788-1.34C417.509,250.05,410.433,264.728,417.129,269.36" />
								</g>
							</g>
							<g>
								<g>
									<path style="fill:#E0E0E0;" d="M411.674,292.842c-0.163,0-0.296-0.129-0.301-0.293c-0.002-0.068-0.17-6.875,1.887-15.254
									c1.209-4.925,2.939-9.425,5.141-13.376c2.757-4.946,6.267-9.04,10.431-12.168c0.133-0.1,0.322-0.073,0.422,0.06
									c0.1,0.133,0.073,0.322-0.06,0.422c-9.283,6.972-13.47,17.555-15.348,25.205c-2.038,8.301-1.872,15.026-1.87,15.093
									c0.005,0.166-0.126,0.305-0.293,0.31C411.68,292.842,411.677,292.842,411.674,292.842z" />
								</g>
							</g>
						</g>
						<g>
							<g>
								<path style="fill:#E0E0E0;" d="M429.834,299.839c-0.017,0.888-0.158,1.786-0.419,2.689c-1.139,3.952-4.543,6.85-8.614,7.432
								c-9.939,1.42-20.191,1.319-30.708-0.063c-4.603-0.606-8.359-4.106-9.089-8.691c-0.124-0.775-0.155-1.545-0.092-2.309
								c0.217-2.644,1.574-5.221,4.235-7.72h40.422C428.547,293.973,429.89,296.864,429.834,299.839z" />
							</g>
						</g>
					</g>
				</g>
			</g>
		</g>
	</g>
	<g id="Background_simple" style="display:none;">
		<g style="display:inline;">
			<path style="fill:#407BFF;" d="M338.003,345.667c35.813-10.336,85.183-55.662,87.697-95.53
			c1.721-27.295-4.279-47.843-27.446-66.61c-59.445-48.155-118.04,38.658-183.745-23.655
			c-76.221-72.286-151.743-21.959-128.902,61.044C108.868,305.452,215.003,381.167,338.003,345.667z" />
			<path style="opacity:0.9;fill:#FFFFFF;" d="M338.003,345.667c35.813-10.336,85.183-55.662,87.697-95.53
			c1.721-27.295-4.279-47.843-27.446-66.61c-59.445-48.155-118.04,38.658-183.745-23.655
			c-76.221-72.286-151.743-21.959-128.902,61.044C108.868,305.452,215.003,381.167,338.003,345.667z" />
		</g>
	</g>
	<g id="Shadow">
		<path style="fill:#F0F0F0;" d="M450.32,450.886c0,3.392-87.761,6.141-196.021,6.141c-108.259,0-196.021-2.749-196.021-6.141
		c0-3.392,87.762-6.141,196.021-6.141C362.559,444.745,450.32,447.494,450.32,450.886z" />
	</g>
	<g id="Plant">
		<g>
			<g>
				<g>
					<path style="fill:#263238;" d="M227.915,412.22l0.642,3.638l0.133,0.764l1.815,10.292l0.15,0.848l3.285,18.628
					c0.056,0.311,0.133,0.611,0.233,0.901c0.1,0.292,0.225,0.573,0.367,0.839c0.995,1.868,2.957,3.102,5.17,3.102h26.246
					c2.843,0,5.275-2.04,5.77-4.842l1.267-7.182l0.134-0.767v-0.003l1.871-10.604l0.258-1.462v-0.003l0.806-4.567l0.153-0.87
					l1.535-8.714H227.915z" />
				</g>
			</g>
			<g>
				<g>
					<g>
						<path style="fill:#407BFF;" d="M252.744,369.759c0,0,6.948-9.833,6.891-15.948c-0.064-6.893-3.699-5.904-3.699-5.904
						s1.426-20.947-3.57-21.96c0,0-0.883-17.243-8.1-14.935c-7.217,2.308-3.951,17.157-3.951,17.157s-1.993,2.237-2.381,5.285
						c-0.748,5.872,4.723,15.67,4.723,15.67s-3.274,1.836-2.257,6.889C241.414,361.065,252.744,369.759,252.744,369.759
						L252.744,369.759z" />
					</g>
				</g>
				<g>
					<path style="fill:#407BFF;"
						d="M253.273,407.114c0,0-15.309-3.724-16.855-9.05c-1.545-5.326-0.011-7.549-0.011-7.549
					s-11.307-15.61-7.538-19.045c0,0-8.072-15.254-0.689-16.977c7.382-1.712,12.185,12.719,12.185,12.719s2.857,0.901,4.747,3.313
					c3.647,4.658,3.969,15.876,3.969,15.876s2.079-1.156,3.802,3.702C254.596,394.962,253.273,407.114,253.273,407.114z" />
				</g>
				<g>
					<path style="fill:#407BFF;" d="M256.457,393.994c0,0,14.422-6.12,15.474-11.563c1.053-5.443-0.672-7.516-0.672-7.516
					s9.837-16.575,5.768-19.647c0,0,6.652-15.932-0.854-16.969c-7.506-1.036-10.976,13.766-10.976,13.766s-2.764,1.157-4.431,3.738
					c-3.211,4.973-2.51,16.173-2.51,16.173s-2.177-0.967-3.443,4.029C253.549,381.001,256.457,393.994,256.457,393.994
					L256.457,393.994z" />
				</g>
			</g>
			<g>
				<path style="fill:#263238;" d="M255.17,414.588c-0.214,0-0.391-0.172-0.396-0.388c-0.8-37.863-7.223-78.332-7.287-78.736
				c-0.035-0.216,0.112-0.419,0.328-0.453c0.22-0.03,0.419,0.111,0.453,0.328c0.065,0.405,6.495,40.929,7.297,78.846
				c0.004,0.219-0.169,0.399-0.388,0.404C255.175,414.588,255.173,414.588,255.17,414.588z" />
			</g>
			<g>
				<path style="fill:#263238;" d="M254.776,403.226c-0.016,0-0.033-0.001-0.049-0.003c-0.217-0.027-0.37-0.225-0.343-0.442
				c1.347-10.744,12.414-37.053,12.526-37.317c0.086-0.202,0.32-0.294,0.518-0.211c0.202,0.086,0.296,0.318,0.211,0.519
				c-0.111,0.264-11.136,26.472-12.47,37.109C255.144,403.08,254.973,403.226,254.776,403.226z" />
			</g>
			<g>
				<path style="fill:#263238;" d="M255.17,414.174c-0.154,0-0.301-0.091-0.365-0.241c-3.536-8.361-9.478-20.482-15.224-32.202
				c-1.261-2.572-2.521-5.143-3.758-7.679c-0.096-0.196-0.015-0.433,0.182-0.529c0.197-0.099,0.433-0.015,0.529,0.182
				c1.237,2.535,2.498,5.106,3.758,7.677c5.751,11.731,11.698,23.861,15.243,32.241c0.085,0.202-0.009,0.434-0.21,0.52
				C255.274,414.164,255.221,414.174,255.17,414.174z" />
			</g>
		</g>
	</g>
	<g id="Character_2">
		<g>
			<path style="fill:#407BFF;" d="M336.588,203.81c-3.28,5.8-6.77,11.29-10.54,16.77c-1.54,2.23-3.13,4.45-4.83,6.64
			c-0.38,0.5-0.76,0.99-1.15,1.48c-0.37,0.47-0.74,0.93-1.12,1.4c-0.72,0.87-1.46,1.74-2.25,2.62c-1.23,1.35-2.47,2.68-4.22,4.13
			c-0.95,0.73-1.82,1.53-3.99,2.43c-0.33,0.12-0.62,0.22-0.98,0.31c-0.4,0.1-0.86,0.19-1.22,0.23c-0.32,0.03-0.64,0.06-0.95,0.06
			c-0.28,0-0.55-0.02-0.83-0.04c-1.04-0.08-1.85-0.28-2.57-0.49c-1.38-0.45-2.41-0.97-3.35-1.49c-0.93-0.52-1.76-1.05-2.55-1.6
			c-3.09-2.15-5.59-4.48-8.05-6.82c-4.84-4.74-9.11-11.27-11.192-15.091l2.96-4.51c2.49,1.93,5.24,3.969,7.78,5.869
			c2.52,1.93,4.908,3.772,7.458,5.542c2.5,1.79,5.243,3.12,7.623,4.39c0.48,0.24,0.95,0.47,1.38,0.66c0.63-0.65,1.41-1.58,2.14-2.52
			c0.88-1.13,1.77-2.33,2.65-3.57c1.75-2.48,3.48-5.09,5.18-7.72c3.41-5.26,6.77-10.73,10.09-16.03L336.588,203.81z" />
			<g>
				<path style="fill:#FFC3BD;" d="M273.137,211.255c0,0-2.196-1.923-4.157-3.484c-1.961-1.562,1.693-1.651,3.387-0.792
				c2.285,1.159,3.8,2.65,3.8,2.65L273.137,211.255z" />
				<path style="opacity:0.2;" d="M273.137,211.255c0,0-2.196-1.923-4.157-3.484c-1.961-1.562,1.693-1.651,3.387-0.792
				c2.285,1.159,3.8,2.65,3.8,2.65L273.137,211.255z" />
				<g>
					<path style="fill:#FFC3BD;" d="M276.796,214.349c0,0-3.089,0.374-7.727,0.578c-4.639,0.204-7.598-4.16-9.909-5.419
					c-2.311-1.259,3.165-2.085,5.043-0.29c1.879,1.796,7.017,0.203,8.985-0.441c1.968-0.644,5.425-0.51,6.567,1.062
					C279.799,211.395,278.578,214.821,276.796,214.349z" />
				</g>
			</g>
			<g>
				<g>
					<g>
						<g>
							<g>
								<polygon style="fill:#FFC3BD;"
									points="343.018,428.995 343.018,444.135 336.903,444.622 333.909,430.448 							" />
							</g>
						</g>
					</g>
					<g>
						<g>
							<g>
								<path style="fill:#407BFF;" d="M338.68,443.197c0,0-1.923-3.691-3.057-3.297c-1.135,0.394-1.597,4.871-1.597,4.871
								s-6.163,2.061-7.885,2.169c-1.722,0.108-3.116,1.085-3.337,4.448h21.044c0,0-0.142-7.593-0.18-8.895
								c-0.038-1.302-1.891,0.325-1.891,0.325L338.68,443.197z" />
							</g>
						</g>
						<g style="opacity:0.2;">
							<g>
								<path style="fill:#FFFFFF;" d="M338.68,443.197c0,0-1.923-3.691-3.057-3.297c-1.135,0.394-1.597,4.871-1.597,4.871
								s-6.163,2.061-7.885,2.169c-1.722,0.108-3.116,1.085-3.337,4.448h21.044c0,0-0.142-7.593-0.18-8.895
								c-0.038-1.302-1.891,0.325-1.891,0.325L338.68,443.197z" />
							</g>
						</g>
						<g>
							<g>
								<g>
									<path style="fill:#FFFFFF;" d="M343.616,445.379c-1.472,0.898-2.163,2.683-1.144,4.437c0.113,0.194-0.153,0.364-0.267,0.169
									c-1.116-1.921-0.428-3.898,1.205-4.895C343.585,444.984,343.79,445.272,343.616,445.379L343.616,445.379z" />
								</g>
							</g>
						</g>
						<g>
							<g>
								<g>
									<path style="fill:#FFFFFF;" d="M343.648,450.179c-5.503,0.057-11.005,0.115-16.508,0.173
									c-1.279,0.013-2.559,0.027-3.838,0.04c-0.215,0.002-0.258-0.332-0.043-0.334c5.503-0.058,11.005-0.115,16.508-0.172
									c1.279-0.014,2.559-0.027,3.838-0.04C343.82,449.842,343.863,450.177,343.648,450.179L343.648,450.179z" />
								</g>
							</g>
						</g>
						<g>
							<g>
								<g>
									<path style="fill:#FFFFFF;" d="M334.937,446.095c-0.865-1.03-2.123-1.319-3.07-0.543c-0.156,0.128-0.36-0.162-0.206-0.289
									c1.085-0.888,2.562-0.505,3.543,0.663C335.351,446.101,335.083,446.268,334.937,446.095L334.937,446.095z" />
								</g>
							</g>
						</g>
						<g>
							<g>
								<g>
									<path style="fill:#FFFFFF;" d="M333.194,446.642c-0.865-1.03-2.122-1.319-3.07-0.543c-0.156,0.128-0.36-0.162-0.206-0.289
									c1.085-0.889,2.562-0.505,3.543,0.663C333.608,446.649,333.34,446.816,333.194,446.642L333.194,446.642z" />
								</g>
							</g>
						</g>
						<g>
							<g>
								<g>
									<path style="fill:#FFFFFF;" d="M331.391,447.189c-0.865-1.03-2.122-1.319-3.07-0.543c-0.156,0.128-0.36-0.162-0.206-0.289
									c1.085-0.889,2.562-0.505,3.543,0.663C331.806,447.196,331.537,447.363,331.391,447.189L331.391,447.189z" />
								</g>
							</g>
						</g>
					</g>
				</g>
				<path style="fill:#263238;" d="M346.689,278.949c-0.174,2.701,0.196,10.998-0.17,15.451c-0.688,8.488-1.612,19.495-2.344,30.519
				c-0.854,12.767-2.821,24.96-2.516,33.831c0.784,22.78,1.967,74.997,1.967,74.997h-9.882c0,0-11.608-51.312-13.778-74.405
				c-1.813-19.146-0.851-68.471-0.546-80.392H346.689z" />
				<path style="opacity:0.2;" d="M346.52,294.4c-0.688,8.488-1.612,19.495-2.344,30.519c-4.863-14.397-0.348-36.148-0.348-36.148
				L346.52,294.4z" />
				<polygon style="fill:#407BFF;"
					points="344.486,434.098 332.888,434.098 332.038,430.398 345.025,429.946 			" />
			</g>
			<g>
				<path style="fill:#263238;" d="M356.883,360.842c4.776,22.694,22.417,72.212,22.417,72.212l9.821-1.118
				c0,0-7.154-50.859-10.504-73.399c-3.024-20.343-4.92-66.767-5.602-80.597l-32.801,1.009
				C341.257,290.823,352.92,342.017,356.883,360.842L356.883,360.842z" />
				<g>
					<g>
						<g>
							<g>
								<polygon style="fill:#FFC3BD;"
									points="388.291,428.995 388.291,444.135 382.176,444.622 379.182,430.448 							" />
							</g>
						</g>
					</g>
					<g>
						<g>
							<g>
								<path style="fill:#407BFF;" d="M383.953,443.197c0,0-1.923-3.691-3.057-3.297c-1.135,0.394-1.597,4.871-1.597,4.871
								s-6.163,2.061-7.885,2.169c-1.722,0.108-3.116,1.085-3.337,4.448h21.044c0,0-0.142-7.593-0.18-8.895
								c-0.038-1.302-1.891,0.325-1.891,0.325L383.953,443.197z" />
							</g>
						</g>
						<g style="opacity:0.2;">
							<g>
								<path style="fill:#FFFFFF;" d="M383.953,443.197c0,0-1.923-3.691-3.057-3.297c-1.135,0.394-1.597,4.871-1.597,4.871
								s-6.163,2.061-7.885,2.169c-1.722,0.108-3.116,1.085-3.337,4.448h21.044c0,0-0.142-7.593-0.18-8.895
								c-0.038-1.302-1.891,0.325-1.891,0.325L383.953,443.197z" />
							</g>
						</g>
						<g>
							<g>
								<g>
									<path style="fill:#FFFFFF;" d="M388.889,445.379c-1.472,0.898-2.163,2.683-1.144,4.437c0.113,0.194-0.153,0.364-0.267,0.169
									c-1.116-1.921-0.428-3.898,1.205-4.895C388.857,444.984,389.063,445.272,388.889,445.379L388.889,445.379z" />
								</g>
							</g>
						</g>
						<g>
							<g>
								<g>
									<path style="fill:#FFFFFF;" d="M388.92,450.179c-5.503,0.057-11.005,0.115-16.508,0.173
									c-1.279,0.013-2.559,0.027-3.838,0.04c-0.215,0.002-0.258-0.332-0.043-0.334c5.503-0.058,11.005-0.115,16.508-0.172
									c1.279-0.014,2.559-0.027,3.838-0.04C389.093,449.842,389.135,450.177,388.92,450.179L388.92,450.179z" />
								</g>
							</g>
						</g>
						<g>
							<g>
								<g>
									<path style="fill:#FFFFFF;" d="M380.21,446.095c-0.865-1.03-2.122-1.319-3.07-0.543c-0.157,0.128-0.36-0.162-0.206-0.289
									c1.085-0.888,2.562-0.505,3.543,0.663C380.624,446.101,380.356,446.268,380.21,446.095L380.21,446.095z" />
								</g>
							</g>
						</g>
						<g>
							<g>
								<g>
									<path style="fill:#FFFFFF;" d="M378.467,446.642c-0.865-1.03-2.122-1.319-3.07-0.543c-0.157,0.128-0.36-0.162-0.205-0.289
									c1.085-0.889,2.562-0.505,3.542,0.663C378.881,446.649,378.613,446.816,378.467,446.642L378.467,446.642z" />
								</g>
							</g>
						</g>
						<g>
							<g>
								<g>
									<path style="fill:#FFFFFF;" d="M376.664,447.189c-0.865-1.03-2.122-1.319-3.07-0.543c-0.156,0.128-0.36-0.162-0.206-0.289
									c1.085-0.889,2.562-0.505,3.543,0.663C377.078,447.196,376.81,447.363,376.664,447.189L376.664,447.189z" />
								</g>
							</g>
						</g>
					</g>
				</g>
				<polygon style="fill:#407BFF;"
					points="390.013,432.191 378.49,433.503 377.226,429.924 390.079,428.005 			" />
			</g>
			<path style="fill:#407BFF;" d="M375.328,280.17c-23.2,2.61-45.36,0.85-57.37-1.22c0.6-5.93,4.31-77.84,5.82-81.99
			c1.4-3.86,7.96-5.74,12.65-6.51c1.13-0.19,2.14-0.32,2.96-0.39c4.11-0.38,8.65-0.41,13.29-0.3c2.22,0.06,4.47,0.15,6.7,0.26
			c3.25,0.15,4.74,0.27,7.19,0.57c3.74,0.46,6.34,3.41,5.99,8.19c-0.47,6.24-0.69,12.47-0.73,18.57c-0.01,1.61-0.01,3.2,0,4.79
			C372.038,250,375.608,274.02,375.328,280.17z" />
			<path style="opacity:0.5;fill:#FFFFFF;" d="M375.328,280.17c-23.2,2.61-45.36,0.85-57.37-1.22c0.6-5.93,4.31-77.84,5.82-81.99
			c1.4-3.86,7.96-5.74,12.65-6.51c1.13-0.19,2.14-0.32,2.96-0.39c4.11-0.38,8.65-0.41,13.29-0.3c2.22,0.06,4.47,0.15,6.7,0.26
			c3.25,0.15,4.74,0.27,7.19,0.57c3.74,0.46,6.34,3.41,5.99,8.19c-0.47,6.24-0.69,12.47-0.73,18.57c-0.01,1.61-0.01,3.2,0,4.79
			C372.038,250,375.608,274.02,375.328,280.17z" />
			<path style="fill:#407BFF;" d="M372.958,251.917l4.597,6.313c6.243-3.607,12.145-7.478,17.941-11.996
			c1.445-1.13,2.898-2.303,4.317-3.616c1.436-1.331,2.846-2.662,4.343-4.597c0.376-0.49,0.762-1.051,1.147-1.707
			c0.385-0.683,0.806-1.48,1.147-2.723c0.088-0.289,0.166-0.674,0.219-1.068c0.061-0.341,0.096-0.867,0.096-1.331
			c0-0.219-0.017-0.517-0.052-0.806c-0.035-0.28-0.07-0.56-0.131-0.849c-0.07-0.315-0.158-0.63-0.271-0.937l-0.158-0.455
			l-0.114-0.254l-0.237-0.499l-0.201-0.368l-0.193-0.342l-0.167-0.271c-0.227-0.368-0.411-0.63-0.604-0.919
			c-0.735-1.024-1.366-1.813-2.005-2.574c-0.639-0.762-1.261-1.48-1.882-2.18c-2.496-2.758-5.009-5.297-7.53-7.819
			c-2.548-2.487-5.087-4.965-7.697-7.346c-5.046-4.68-10.167-9.21-15.515-13.55c-0.283-0.23-0.638-0.374-1.003-0.379
			c-0.073-0.001-0.145-0.001-0.217-0.001c-8.019,0.063-11.44,10.309-5.401,15.585c3.879,3.389,7.825,6.734,11.743,10.06l7.88,6.707
			c2.618,2.215,5.21,4.466,7.627,6.681c0.587,0.534,1.165,1.068,1.69,1.585c-0.42,0.56-0.893,1.147-1.375,1.716
			c-1.016,1.191-2.119,2.417-3.266,3.625C383.08,242.434,377.958,247.197,372.958,251.917z" />
			<path style="fill:#FFC3BD;" d="M376.402,249.333c0,0-7.443,0.431-8.744,1.393c-1.301,0.962,2.987,9.584,5.12,11.206
			c2.132,1.622,1.68-1.598,1.68-1.598s3.957-1.294,6.037-3.251C382.575,255.126,382.077,251.292,376.402,249.333z" />
			<path style="fill:#407BFF;" d="M352.678,189.76c-1.7,2.9-6.349,9.098-13.1,9.12c-5,0.016-4.5-5.86-3.15-8.43
			c1.13-0.19,2.14-0.32,2.96-0.39C343.498,189.68,348.038,189.65,352.678,189.76z" />
			<g>
				<g>
					<g>
						<g>
							<g>
								<path style="fill:#263238;" d="M335.512,154.109c6.316-0.663,8.312,0.215,11.523,2.323c2.097,1.377,5.126,4.152,5.643,7.485
								c1.578,10.184-5.683,13.917-5.683,13.917l-19.809-11.222c0,0-5.321-6.88-0.202-11.611
								C329.553,152.625,332.365,154.439,335.512,154.109z" />
								<g>
									<path style="fill:#FFC3BD;" d="M337.168,185.5l-0.001,0.008c0.012,0.028,0.018,0.046,0.03,0.074l0.967,3.551
									c0.083,0.726,0.097,1.448,0.047,2.151c-0.041,0.593-0.13,1.17-0.25,1.724c-0.417,1.242-0.602,3.679,1.652,3.504
									c3.497-0.271,9.908-5.178,10.128-6.727c-1.658-4.783-3.057-10.379-2.829-14.962l-3.972,4.359L337.168,185.5z" />
								</g>
								<g style="opacity:0.2;">
									<path d="M337.197,185.582l0.967,3.551c2.188-1.018,4.469-3.194,4.978-5.535c0.355-1.689-0.416-3.26-1.096-3.341
									L337.197,185.582z" />
								</g>
								<g>
									<path style="fill:#FFC3BD;" d="M328.261,178.196c0.213,0.772,0.451,1.533,0.705,2.283c2.262,6.62,10.454,7.161,15.51,2.235
									c0.008-0.01,0.007-0.018,0.015-0.019c0.448-0.438,0.874-0.917,1.268-1.444c3.205-4.281,2.368-7.546,1.825-14.972
									c-0.542-7.417-8.513-11.995-15.22-8.146C326.175,161.684,326.116,170.476,328.261,178.196z" />
								</g>
								<path style="fill:#263238;" d="M328.119,177.668c0,0,0.216,8.268,5.167,9.666c3.881,1.095,10.285-0.617,10.809-6.125
								c0.475-5,0.553-9.855,0.553-9.855l-1.829,0.392c0,0-2.532,4.017-3.574,4.198c-1.042,0.182-1.407-1.062-6.459-0.187
								C329.099,176.396,328.119,177.668,328.119,177.668z" />
								<path style="fill:#FFFFFF;" d="M331.428,178.683c1.585-0.486,2.633-0.931,5.052-1.939c0,0,0.315,2.573-2.268,3.121
								C332.315,180.267,331.428,178.683,331.428,178.683z" />
								<path style="fill:#263238;" d="M342.828,164.438c1.874,0.464-0.009,7.308-0.009,7.308l2.643-0.567c0,0-0.2-0.251-0.116-2.17
								c0.084-1.919,2.325-2.038,2.325-2.038s0.546-5.563-2.346-9.043c-2.893-3.48-10.004-2.942-13.528-0.539
								c-3.524,2.403-4.262,6.833-4.262,6.833s2.419-3.471,3.482-3.471s0.063,1.469,1.188,1.438c2.157-0.06,3.168-3.375,6.615-2.563
								C342.265,160.438,338.402,163.341,342.828,164.438z" />
								<g>
									<path style="fill:#FFC3BD;" d="M351.408,170.761c-0.284,1.986-1.457,3.656-2.792,4.624c-2.007,1.456-3.87-0.132-4.031-2.476
									c-0.145-2.11,0.724-5.41,3.085-5.938C349.996,166.45,351.732,168.49,351.408,170.761" />
								</g>
								<g>
									<path style="fill:#263238;" d="M336.614,171.323c0.079,0.581-0.165,1.093-0.544,1.144c-0.38,0.051-0.751-0.377-0.83-0.958
									c-0.079-0.58,0.165-1.093,0.545-1.144C336.164,170.313,336.535,170.742,336.614,171.323" />
								</g>
								<g>
									<path style="fill:#263238;" d="M330.24,172.108c0.079,0.581-0.165,1.093-0.545,1.144c-0.379,0.051-0.751-0.378-0.829-0.958
									c-0.079-0.581,0.165-1.093,0.545-1.144C329.79,171.098,330.162,171.527,330.24,172.108" />
								</g>
							</g>
							<g>
								<path style="fill:#263238;" d="M327.774,169.891c0.102-0.014,0.194-0.081,0.234-0.184c0.182-0.459,0.452-0.765,0.802-0.911
								c0.576-0.24,1.208,0.016,1.214,0.02c0.146,0.063,0.323-0.005,0.387-0.156c0.064-0.15-0.006-0.324-0.156-0.388
								c-0.034-0.015-0.862-0.36-1.673-0.021c-0.503,0.209-0.881,0.626-1.123,1.239c-0.061,0.152,0.013,0.323,0.165,0.384
								C327.674,169.892,327.725,169.898,327.774,169.891z" />
							</g>
							<g>
								<path style="fill:#263238;" d="M338.013,168.712c0.043-0.006,0.086-0.022,0.124-0.048c0.135-0.091,0.172-0.273,0.081-0.408
								c-0.021-0.032-0.525-0.773-1.388-0.933c-0.535-0.1-1.08,0.042-1.618,0.422c-0.134,0.094-0.166,0.278-0.071,0.412
								c0.095,0.134,0.279,0.165,0.412,0.071c0.402-0.283,0.794-0.393,1.165-0.325c0.617,0.113,1.006,0.677,1.01,0.683
								C337.793,168.681,337.905,168.726,338.013,168.712z" />
							</g>
							<g>
								<path style="fill:#ED847E;" d="M332.686,170.111c0,0-0.832,2.979-2.251,4.942c-0.155,0.214,2.527,0.667,2.527,0.667
								L332.686,170.111z" />
							</g>
						</g>
					</g>
					<g>
						<g>
							<path
								d="M337.769,188.428c0.002-0.007,0.003-0.011,0.003-0.013c-0.002-0.002-0.005,0.003-0.01,0.013H337.769z" />
						</g>
					</g>
				</g>
			</g>
		</g>
	</g>
	<g id="Speech_bubble_2">
		<g>
			<path style="fill:#407BFF;" d="M326.324,95.432v44.021c0,6.273-4.059,11.66-9.704,13.579l0.996,21.402l-18.708-20.59h-78.78
			c-7.933,0-14.353-6.457-14.353-14.391V95.432c0-7.934,6.42-14.391,14.353-14.391h91.806
			C319.866,81.041,326.324,87.498,326.324,95.432z" />
			<path style="opacity:0.5;fill:#FFFFFF;" d="M326.324,95.432v44.021c0,6.273-4.059,11.66-9.704,13.579l0.996,21.402l-18.708-20.59
			h-78.78c-7.933,0-14.353-6.457-14.353-14.391V95.432c0-7.934,6.42-14.391,14.353-14.391h91.806
			C319.866,81.041,326.324,87.498,326.324,95.432z" />
			<g>
				<circle style="fill:#407BFF;" cx="237.839" cy="117.947" r="6.632" />
				<circle style="fill:#407BFF;" cx="294.259" cy="117.947" r="6.632" />
				<circle style="fill:#407BFF;" cx="266.333" cy="117.947" r="6.632" />
			</g>
		</g>
	</g>
	<g id="Character_1">
		<g>
			<g>
				<g>
					<g>
						<polygon style="fill:#FF8B7B;"
							points="162.883,434.329 164.973,444.321 170.231,444.321 170.807,434.329 					" />
						<g>
							<g>
								<path style="fill:#263238;" d="M185.263,451.388c-0.175-3.256-1.572-4.228-3.333-4.339c-1.832-0.116-8.312-2.311-8.312-2.311
								s-1.299-2.067-2.492-2.487c-1.192-0.42-2.401,0.81-2.401,0.81l-3.287-0.403c0,0-0.939-1.486-1.664-0.184
								c-1.123,2.018-1.184,7.604-1.13,8.914H185.263z" />
							</g>
						</g>
						<g>
							<g>
								<g>
									<path style="fill:#407BFF;" d="M184.863,450.537c-1.369-0.006-2.732-0.013-4.101-0.019
									c-5.979-0.029-11.958-0.064-17.937-0.093c-0.229,0.001-0.17-0.349,0.057-0.344c0.402,0.005,0.812,0.003,1.215,0.007
									c0.002-0.013,0.012-0.033,0.021-0.046c1.173-1.876,0.497-3.781-1.063-4.731c-0.184-0.105,0.048-0.41,0.225-0.298
									c1.689,1.029,2.369,3.066,1.181,5.074c0.845,0.009,1.684,0.011,2.53,0.014c5.973,0.029,11.951,0.065,17.93,0.094
									C185.149,450.192,185.091,450.542,184.863,450.537z" />
								</g>
							</g>
						</g>
						<g>
							<g>
								<g>
									<path style="fill:#FFFFFF;" d="M172.58,446.146c0.97-1.096,2.343-1.406,3.309-0.58c0.156,0.134,0.381-0.167,0.227-0.299
									c-1.109-0.949-2.707-0.536-3.805,0.705C172.149,446.153,172.42,446.326,172.58,446.146L172.58,446.146z" />
								</g>
							</g>
						</g>
						<g>
							<g>
								<g>
									<path style="fill:#FFFFFF;" d="M174.414,446.729c0.97-1.096,2.343-1.407,3.309-0.58c0.156,0.134,0.381-0.167,0.227-0.299
									c-1.108-0.949-2.707-0.536-3.805,0.705C173.983,446.736,174.255,446.909,174.414,446.729L174.414,446.729z" />
								</g>
							</g>
						</g>
						<g>
							<g>
								<g>
									<path style="fill:#FFFFFF;" d="M176.312,447.312c0.97-1.096,2.343-1.407,3.308-0.58c0.156,0.134,0.382-0.167,0.227-0.3
									c-1.108-0.949-2.707-0.536-3.805,0.705C175.881,447.319,176.152,447.492,176.312,447.312L176.312,447.312z" />
								</g>
							</g>
						</g>
					</g>
				</g>
				<g>
					<g>
						<polygon style="fill:#FF8B7B;"
							points="102.424,426.644 100.181,436.953 104.965,439.092 109.449,429.523 					" />
						<g>
							<g>
								<path style="fill:#263238;" d="M115.769,451.639c1.165-3.034,0.29-4.486-1.268-5.304c-1.62-0.851-6.624-5.485-6.624-5.485
								s-0.341-2.41-1.255-3.277c-0.914-0.867-2.515-0.24-2.515-0.24l-2.828-1.704c0,0-0.25-1.735-1.439-0.845
								c-1.843,1.38-4.171,6.438-4.655,7.652L115.769,451.639z" />
							</g>
						</g>
						<g>
							<g>
								<g>
									<path style="fill:#407BFF;" d="M115.751,450.703c-1.243-0.563-2.48-1.123-3.724-1.686
									c-5.429-2.459-10.855-4.924-16.285-7.383c-0.208-0.092-0.013-0.387,0.192-0.29c0.364,0.168,0.738,0.333,1.102,0.501
									c0.007-0.011,0.024-0.025,0.038-0.034c1.83-1.23,1.991-3.239,0.957-4.738c-0.125-0.17,0.211-0.353,0.326-0.18
									c1.118,1.623,0.908,3.754-0.99,5.098c0.765,0.352,1.528,0.695,2.297,1.042c5.423,2.457,10.849,4.921,16.278,7.381
									C116.152,450.505,115.956,450.8,115.751,450.703z" />
								</g>
							</g>
						</g>
						<g>
							<g>
								<g>
									<path style="fill:#FFFFFF;" d="M106.36,441.709c1.328-0.603,2.704-0.327,3.247,0.818c0.087,0.185,0.415,0.003,0.328-0.18
									c-0.623-1.314-2.245-1.59-3.749-0.907C105.965,441.54,106.141,441.808,106.36,441.709L106.36,441.709z" />
								</g>
							</g>
						</g>
						<g>
							<g>
								<g>
									<path style="fill:#FFFFFF;" d="M107.792,442.986c1.328-0.603,2.704-0.327,3.247,0.818c0.088,0.185,0.415,0.003,0.328-0.18
									c-0.623-1.314-2.245-1.59-3.749-0.907C107.397,442.817,107.574,443.085,107.792,442.986L107.792,442.986z" />
								</g>
							</g>
						</g>
						<g>
							<g>
								<g>
									<path style="fill:#FFFFFF;" d="M109.282,444.288c1.328-0.603,2.704-0.327,3.246,0.818c0.088,0.185,0.415,0.003,0.329-0.18
									c-0.623-1.314-2.245-1.59-3.749-0.907C108.887,444.12,109.063,444.388,109.282,444.288L109.282,444.288z" />
								</g>
							</g>
						</g>
					</g>
				</g>
				<path style="fill:#407BFF;" d="M143.96,292.797c0.783,10.793,2.567,24.756,6.043,42.725c1.01,5.221,2.163,10.783,3.48,16.705
				c-2.197,35.783,9.265,83.816,9.265,83.816l8.705-0.194c0,0,2.957-55.353,2.911-84.331c-0.076-47.48-4.332-92.708-4.332-92.708
				l-23.688-0.093C146.343,258.716,142.011,265.853,143.96,292.797z" />
				<path style="opacity:0.2;fill:#FFFFFF;" d="M143.96,292.797c0.783,10.793,2.567,24.756,6.043,42.725
				c1.01,5.221,2.163,10.783,3.48,16.705c-2.197,35.783,9.265,83.816,9.265,83.816l8.705-0.194c0,0,2.957-55.353,2.911-84.331
				c-0.076-47.48-4.332-92.708-4.332-92.708l-23.688-0.093C146.343,258.716,142.011,265.853,143.96,292.797z" />
				<path style="opacity:0.2;" d="M143.96,292.797c0.783,10.793,2.567,24.756,6.043,42.725c5.626-18.99-2.027-59.517-2.027-59.517
				L143.96,292.797z" />
				<path style="fill:#407BFF;" d="M151.256,266.262c0,0-4.679,66.3-9.138,90.086l-32.672,74.869l-7.959-4.475
				c0,0,12.298-58.409,22.131-76.409c0,0-7.12-59.691,1.198-86.45L151.256,266.262z" />
				<path style="opacity:0.2;fill:#FFFFFF;" d="M151.256,266.262c0,0-4.679,66.3-9.138,90.086l-32.672,74.869l-7.959-4.475
				c0,0,12.298-58.409,22.131-76.409c0,0-7.12-59.691,1.198-86.45L151.256,266.262z" />
				<g>
					<polygon style="fill:#263238;"
						points="108.859,434.136 110.918,431.003 100.594,425.705 99.364,429.264 				" />
				</g>
				<g>
					<polygon style="fill:#263238;"
						points="172.381,437.897 172.782,434.169 161.178,434.169 161.708,437.897 				" />
				</g>
			</g>
			<path style="fill:#263238;" d="M172.121,233.164c-0.259,2.73,0.01,6.304,0.374,10.347c0.125,1.437,0.268,2.941,0.393,4.484
			c0.536,6.4,0.91,13.527-0.335,20.138c-0.192,1.006-0.91,1.859-1.887,2.175c-6.457,2.108-28.674,1.121-45.526-2.979
			c-1.609-0.393-2.615-1.993-2.261-3.612c1.284-5.854,2.261-13.566,2.51-22.849c0.038-1.226,0.058-2.472,0.067-3.756
			c0.048-8.201-0.469-17.494-1.791-27.706c-0.728-5.624,3.257-10.797,8.891-11.458c1.59-0.182,3.276-0.345,5.001-0.45
			c6.764-0.431,12.311-0.738,18.26-0.287c1.983,0.144,4.024,0.364,5.969,0.604c7.042,0.881,12.349,6.984,12.081,14.074
			C173.52,221.179,180.763,226.496,172.121,233.164z" />
			<path style="opacity:0.2;" d="M135.694,213.747c0,0,0.399,11.565,3.282,15.962l-5.748-1.118
			C133.229,228.591,133.45,218.622,135.694,213.747z" />
			<path style="opacity:0.2;" d="M172.888,247.995c-6.553-1.811-16.947-7.511-16.947-7.511l16.555,3.027
			C172.619,244.948,172.763,246.452,172.888,247.995z" />
			<path style="opacity:0.2;" d="M160.51,237.6c0,0-17.359,11.784-24.851,10.529c-4.359-0.728-7.999-4.359-10.27-7.262
			c0.038-1.226,0.058-2.472,0.067-3.756L160.51,237.6z" />
			<g>
				<path style="fill:#FFFFFF;" d="M156.918,213.421c0.553,0,1.073-0.14,1.556-0.42c4.817-2.79-0.408-15.597-0.633-16.141
				c-0.07-0.169-0.265-0.247-0.433-0.18c-0.169,0.07-0.249,0.263-0.179,0.432c0.053,0.128,5.233,12.814,0.914,15.315
				c-0.64,0.371-1.343,0.429-2.146,0.183c-5.288-1.626-12.085-15.627-12.153-15.768c-0.079-0.165-0.278-0.234-0.442-0.155
				c-0.165,0.079-0.234,0.277-0.154,0.442c0.283,0.587,6.992,14.402,12.555,16.113C156.186,213.362,156.56,213.421,156.918,213.421z
				" />
			</g>
			<g>
				<g>
					<g>
						<g>
							<g>
								<g>
									<g>
										<path style="fill:#263238;" d="M166.779,178.246c0,0,4.345-8.066-1.864-13.531c-6.209-5.465-16.718-4.044-21.255,2.714
										c-4.537,6.759-2.807,15.422,1.404,18.463c3.503,2.53,3.012,5.237,3.012,5.237L166.779,178.246z" />
										<path style="fill:#263238;" d="M152.895,161.982c0-5.647-9.235-9.109-14.592-5.738c-7.431,4.675-0.911,11.412-2.277,15.302
										c-1.366,3.891-6.831,0.927-6.831,0.927s4.008,8.534,10.384,6.196c5.733-2.103,7.327-9.309,7.327-9.309
										S152.895,167.63,152.895,161.982z" />
										<g>
											<g>
												<path style="fill:#407BFF;" d="M142.417,168.586c0.113,0,0.22-0.071,0.258-0.184c2.489-7.224,9.846-6.791,10.16-6.771
												c0.147,0.008,0.282-0.103,0.291-0.253c0.011-0.15-0.102-0.281-0.253-0.292c-0.081-0.004-8.088-0.489-10.714,7.138
												c-0.049,0.143,0.027,0.298,0.17,0.347C142.358,168.581,142.387,168.586,142.417,168.586z" />
											</g>
											<g style="opacity:0.5;">
												<path style="fill:#FFFFFF;" d="M142.417,168.586c0.113,0,0.22-0.071,0.258-0.184c2.489-7.224,9.846-6.791,10.16-6.771
												c0.147,0.008,0.282-0.103,0.291-0.253c0.011-0.15-0.102-0.281-0.253-0.292c-0.081-0.004-8.088-0.489-10.714,7.138
												c-0.049,0.143,0.027,0.298,0.17,0.347C142.358,168.581,142.387,168.586,142.417,168.586z" />
											</g>
										</g>
										<g>
											<g>
												<g>
													<path style="fill:#FF8B7B;" d="M156.942,197.713c0.047,0.081,0.084,0.165,0.123,0.248
													c1.514,6.796-7.716,5.079-11.465-0.813c2.489-3.314,2.974-9.095,2.399-13.271l7.528,6.217l1.46,1.398
													c-0.327,1.061-0.59,2.145-0.646,3.176C156.27,195.763,156.42,196.805,156.942,197.713z" />
												</g>
											</g>
										</g>
										<g style="opacity:0.2;">
											<g>
												<g>
													<path d="M156.343,194.668c0.056-1.031,0.318-2.115,0.646-3.176l-1.46-1.398l-3.901-0.093
													C151.627,190.001,153.463,193.771,156.343,194.668z" />
												</g>
											</g>
										</g>
										<g>
											<g>
												<g>
													<path style="fill:#FF8B7B;" d="M145.167,176.069c1.027,7.546,1.359,9.474,5.406,13.082
													c6.088,5.427,14.894,3.805,16.099-3.895c1.083-6.931-0.778-18.106-8.281-20.574
													C150.999,162.25,144.14,168.523,145.167,176.069" />
												</g>
											</g>
										</g>
										<ellipse style="fill:#FFFFFF;" cx="159.388" cy="184.568" rx="1" ry="1.286" />
										<g>
											<path style="fill:#263238;" d="M158.726,173.801c-0.064,0.074-0.159,0.12-0.264,0.119
											c-1.444-0.018-2.145,1.496-2.152,1.512c-0.08,0.173-0.281,0.25-0.454,0.171c-0.173-0.078-0.25-0.281-0.171-0.454
											c0.035-0.079,0.898-1.94,2.787-1.916c0.19,0.003,0.342,0.158,0.339,0.348
											C158.809,173.665,158.777,173.742,158.726,173.801z" />
										</g>
										<g>
											<path style="fill:#263238;" d="M165.654,175.221c-0.093-0.03-0.172-0.099-0.213-0.196c-0.548-1.337-2.215-1.39-2.233-1.39
											c-0.19-0.006-0.34-0.161-0.335-0.351c0.004-0.189,0.161-0.34,0.351-0.335c0.087,0.002,2.136,0.068,2.853,1.816
											c0.072,0.176-0.012,0.376-0.188,0.449C165.812,175.244,165.729,175.245,165.654,175.221z" />
										</g>
										<path style="fill:#263238;" d="M160.102,164.15c0,0-0.872,9.152-10.026,8.263c-9.154-0.889-1.776-8.199,2.254-9.292
										C156.361,162.028,160.102,164.15,160.102,164.15z" />
										<path style="fill:#263238;" d="M150.117,165.542c0,0,3.472,9.462,0.695,12.63c-2.777,3.167-7.623-1.441-7.623-1.441
										S143.637,166.359,150.117,165.542z" />
										<g>
											<g>
												<g>
													<path style="fill:#263238;" d="M157.31,177.108c0.046,0.617,0.411,1.093,0.814,1.063
													c0.403-0.03,0.693-0.555,0.646-1.173c-0.046-0.617-0.411-1.093-0.815-1.063
													C157.553,175.966,157.263,176.491,157.31,177.108" />
												</g>
											</g>
										</g>
										<g>
											<g>
												<g>
													<path style="fill:#263238;" d="M163.53,176.786c0.047,0.617,0.412,1.093,0.815,1.063
													c0.403-0.03,0.692-0.555,0.646-1.173c-0.046-0.617-0.411-1.093-0.814-1.063
													C163.773,175.644,163.484,176.169,163.53,176.786" />
												</g>
											</g>
										</g>
										<g>
											<g>
												<g>
													<path style="fill:#263238;"
														d="M164.001,175.661l1.45-0.539C165.451,175.122,164.778,176.337,164.001,175.661" />
												</g>
											</g>
										</g>
										<g>
											<g>
												<g>
													<path style="fill:#FF5652;" d="M160.995,177.076c0,0,1.187,1.555,2.448,2.888c0.41,0.433,0.328,1.139-0.188,1.441
													c-0.886,0.519-1.869,0.797-1.869,0.797L160.995,177.076z" />
												</g>
											</g>
										</g>
										<g>
											<g>
												<g>
													<path style="fill:#263238;"
														d="M157.78,175.983l1.45-0.539C159.23,175.444,158.557,176.66,157.78,175.983" />
												</g>
											</g>
										</g>
									</g>
									<g>
										<g>
											<g>
												<path style="fill:#FF8B7B;" d="M142.866,181.521c0.787,1.4,2.043,2.222,3.187,2.451c1.72,0.344,2.418-1.567,1.804-3.407
												c-0.553-1.656-2.114-3.83-3.775-3.336C142.445,177.715,141.966,179.921,142.866,181.521" />
											</g>
										</g>
									</g>
									<g>
										<g>
											<path style="fill:#FFFFFF;" d="M146.388,184.732c-0.559,0.402-1.337,0.274-1.738-0.284
											c-0.402-0.559-0.274-1.337,0.284-1.738c0.559-0.401,1.337-0.274,1.738,0.284
											C147.073,183.552,146.946,184.33,146.388,184.732z" />
										</g>
									</g>
								</g>
							</g>
						</g>
					</g>
				</g>
			</g>
			<path style="fill:#263238;" d="M136.079,208.834l-0.304,3.744c-0.085,1.276-0.186,2.551-0.246,3.822
			c-0.147,2.541-0.203,5.066-0.18,7.51c0.047,2.424,0.202,4.835,0.584,6.782c0.179,0.957,0.476,1.791,0.629,2.16
			c0.072,0.187,0.102,0.227-0.052,0.124c-0.036-0.014-0.087-0.054-0.146-0.08c-0.045-0.016,0.059,0.051,0.079,0.078
			c0.088,0.069,0.185,0.141,0.302,0.21c0.463,0.275,1.187,0.539,2.079,0.71c0.895,0.165,1.935,0.236,3.036,0.212
			c2.212-0.026,4.639-0.364,7.085-0.856c4.893-0.996,9.997-2.579,14.906-4.262l2.598,4.648c-2.309,1.755-4.637,3.22-7.099,4.639
			c-2.458,1.392-5.011,2.661-7.712,3.753c-2.706,1.081-5.548,2.009-8.702,2.546c-1.579,0.256-3.245,0.409-5.038,0.357
			c-1.79-0.054-3.741-0.342-5.757-1.136c-0.503-0.197-1.007-0.43-1.506-0.692c-0.266-0.151-0.46-0.243-0.782-0.451
			c-0.335-0.219-0.664-0.451-0.951-0.691c-1.19-0.971-1.988-2.018-2.603-2.988c-1.22-1.957-1.775-3.714-2.243-5.368
			c-0.886-3.3-1.175-6.294-1.336-9.251c-0.163-2.946-0.101-5.816,0.049-8.658c0.089-1.42,0.183-2.834,0.337-4.243
			c0.144-1.431,0.317-2.77,0.558-4.297L136.079,208.834z" />
			<path style="fill:#263238;" d="M184.643,240.081c-0.077,0.862-0.345,1.868-0.814,2.644c-0.22,0.393-0.527,0.833-0.795,1.111
			c-0.249,0.278-0.527,0.527-0.814,0.767c-0.326,0.259-0.508,0.364-0.747,0.508c-0.23,0.134-0.46,0.259-0.699,0.374
			c-0.345,0.144-0.69,0.268-1.044,0.374c-0.259,0.067-0.517,0.125-0.786,0.173c-0.92,0.153-1.571,0.163-2.156,0.153
			c-0.584-0.01-1.092-0.058-1.571-0.105c-1.907-0.23-3.478-0.584-5.049-0.958c-1.562-0.393-3.075-0.795-4.56-1.255
			c-2.96-0.91-5.854-1.868-8.708-2.922c-0.335-0.125-0.68-0.249-1.016-0.383c-0.029-0.01-0.057-0.019-0.086-0.029
			c-0.144-0.048-0.287-0.096-0.421-0.163c-0.297-0.096-0.594-0.211-0.881-0.326c-4.876-1.83-9.657-3.803-14.39-6.016l1.83-5.47
			l17.446,3.669c2.893,0.575,5.777,1.178,8.613,1.658c0.977,0.163,3.276,1.016,4.225,1.159c-0.805-1.954-2.989-4.618-3.803-6.591
			c-2.29-5.442-4.598-10.931-6.745-16.43l11.535-4.895c2.5,5.499,4.733,11.065,6.84,16.746c1.063,2.836,2.041,5.7,3.008,8.68
			c0.469,1.552,0.901,2.903,1.351,4.991l0.153,0.824l0.019,0.105l0.029,0.192l0.029,0.278
			C184.662,239.315,184.671,239.698,184.643,240.081z" />
			<path style="opacity:0.2;" d="M168.476,211.367c0,0,3.937,6.586,5.651,11.017c1.714,4.431-2.014,8.55-2.014,8.55l0.775,1.33
			c0,0,3.945-4.818,2.614-9.421C174.544,219.53,168.476,211.367,168.476,211.367z" />
			<path style="opacity:0.2;" d="M165.875,233.95c-1.245,0.881-6.85,4.819-9.992,6.61c-0.029-0.01-0.057-0.019-0.086-0.029
			c-0.144-0.048-0.287-0.096-0.421-0.163C155.816,240.11,163.259,235.741,165.875,233.95z" />
			<path style="fill:#FF8B7B;" d="M163.88,229.084c0,0,1.771-1.051,5.833,0.106c5.269,2.942,4.063,6.267,2.838,5.916l-6.122-1.472
			L163.88,229.084z" />
			<path style="fill:#FF8B7B;" d="M143.668,228.996c0,0-4.557-2.205-6.269-2.682c-1.712-0.477-2.056,0.046-2.056,0.046l0.174,1.715
			c0,0-3.108,3.39-3.613,6.305c-0.505,2.914,5.25,0.329,7.269,0.093c2.019-0.236,3.979-0.119,3.979-0.119
			C143.887,233.96,144.526,230.065,143.668,228.996z" />
		</g>
	</g>
	<g id="Speech_bubble1">
		<g>
			<path style="fill:#407BFF;" d="M165.954,139.94v10.624c0,1.514,0.98,2.814,2.342,3.277l-0.24,5.165l4.515-4.969h19.014
			c1.915,0,3.464-1.558,3.464-3.473V139.94c0-1.915-1.549-3.473-3.464-3.473h-22.158
			C167.512,136.466,165.954,138.025,165.954,139.94z" />
			<path style="opacity:0.5;fill:#FFFFFF;" d="M165.954,139.94v10.624c0,1.514,0.98,2.814,2.342,3.277l-0.24,5.165l4.515-4.969
			h19.014c1.915,0,3.464-1.558,3.464-3.473V139.94c0-1.915-1.549-3.473-3.464-3.473h-22.158
			C167.512,136.466,165.954,138.025,165.954,139.94z" />
			<g>
				<path style="fill:#407BFF;" d="M185.709,145.374c0,0.884,0.717,1.601,1.601,1.601c0.884,0,1.601-0.717,1.601-1.601
				c0-0.884-0.717-1.601-1.601-1.601C186.426,143.773,185.709,144.49,185.709,145.374z" />
				<path style="fill:#407BFF;" d="M172.092,145.374c0,0.884,0.717,1.601,1.601,1.601c0.884,0,1.601-0.717,1.601-1.601
				c0-0.884-0.717-1.601-1.601-1.601C172.809,143.773,172.092,144.49,172.092,145.374z" />
				<path style="fill:#407BFF;" d="M178.832,145.374c0,0.884,0.717,1.601,1.601,1.601c0.884,0,1.601-0.717,1.601-1.601
				c0-0.884-0.717-1.601-1.601-1.601C179.549,143.773,178.832,144.49,178.832,145.374z" />
			</g>
		</g>
	</g>
</svg>