<?xml version="1.0" encoding="utf-8"?>
<!-- Generator: Adobe Illustrator 27.5.0, SVG Export Plug-In . SVG Version: 6.00 Build 0)  -->
<svg version="1.1" xmlns="http://www.w3.org/2000/svg" xmlns:xlink="http://www.w3.org/1999/xlink" x="0px" y="0px"
	viewBox="0 0 500 500" style="enable-background:new 0 0 500 500;" xml:space="preserve">
	<!-- <g id="BACKGROUND">
	<rect id="XMLID_1_" style="fill:#FFFFFF;" width="500" height="500"/>
</g> -->
	<g id="OBJECTS">
		<g id="XMLID_93_">
			<path id="XMLID_130_" style="opacity:0.34;fill:#9EB7C7;" d="M66.687,346.192c-19.117-39.334-15.107-86.628,1.899-127.189
			c49.578-118.25,199.36-173.976,316.723-117.894c85.334,40.777,93.654,150.808,49.187,225.461
			c-23.645,39.695-67.95,64.742-113.73,76.073C243.011,421.888,107.452,430.068,66.687,346.192z" />
			<path id="XMLID_129_" style="fill:#9EB7C7;"
				d="M417.086,398.287c0,0-78.168,25.781-174.592,25.781
			c-96.425,0-174.592-25.781-174.592-25.781s78.168-25.781,174.592-25.781C338.918,372.507,417.086,398.287,417.086,398.287z" />
		</g>
		<g id="XMLID_126_">
			<g id="XMLID_88_">
				<path id="XMLID_106_" style="fill:#DB9171;" d="M310.333,285.202c10.279-4.938,59.309-26.238,59.309-26.238l-16.707-2.023
				l-42.602,24.302v-54.507h-3.007l-2.822,52.738l-34.132-22.533l-12.856,1.802c0,0,42.968,21.603,46.811,24.046l-2.578,48.166
				l-38.58,54.988H275.5l25.631-43.441l-2.325,43.441h11.528v-42.569l25.116,42.569h11.083l-36.199-53.199V285.202z" />
				<polygon id="XMLID_122_" style="fill:#BC6D51;"
					points="310.333,269.071 310.333,226.736 307.326,226.736 305.06,269.071 			" />
				<path id="XMLID_123_" style="fill:#BC6D51;" d="M346.489,269.071c12.451-5.458,23.153-10.107,23.153-10.107l-16.707-2.023
				l-21.264,12.13H346.489z" />
				<path id="XMLID_124_" style="fill:#BC6D51;" d="M288.745,269.071l-18.374-12.13l-12.856,1.802c0,0,9.784,4.919,20.431,10.328
				H288.745z" />
				<polygon id="XMLID_83_" style="fill:#DB9171;"
					points="382.055,261.525 249.495,261.208 238.744,80.013 396.209,65.117 			" />
				<polygon id="XMLID_92_" style="fill:#BC6D51;"
					points="391.443,115.315 243.784,145.617 246.479,191.036 387.224,173.859 			" />
				<polygon id="XMLID_111_" style="fill:#BC6D51;"
					points="248.582,226.478 250.574,260.064 380.988,260.376 383.767,221.816 			" />
				<polygon id="XMLID_86_" style="fill:#BC6D51;"
					points="260.953,249.75 250.202,91.471 387.211,76.575 370.596,250.067 			" />
				<polygon id="XMLID_87_" style="fill:#FFE2CC;"
					points="262.974,247.903 253.533,92.235 382.055,81.159 369.642,247.903 			" />
			</g>
			<g id="XMLID_108_">
				<polygon id="XMLID_89_" style="fill:#3B2F47;"
					points="274.838,102.104 274.838,107.26 374.428,100.385 374.428,93.797 			" />
				<polygon id="XMLID_91_" style="fill:#3B2F47;"
					points="267.76,112.989 366.789,104.109 366.789,108.549 267.76,117.068 			" />
				<polygon id="XMLID_90_" style="fill:#3B2F47;"
					points="272.546,121.01 371.945,113.562 371.945,117.068 272.546,123.874 			" />
			</g>
			<g id="XMLID_110_">
				<polygon id="XMLID_114_" style="fill:#3B2F47;"
					points="271.019,144.038 271.019,149.195 370.608,142.32 370.608,135.731 			" />
				<polygon id="XMLID_113_" style="fill:#3B2F47;"
					points="263.941,154.924 362.969,146.044 362.969,150.484 263.941,159.003 			" />
				<polygon id="XMLID_112_" style="fill:#3B2F47;"
					points="268.727,162.944 368.126,155.497 368.126,159.003 268.727,165.809 			" />
			</g>
			<g id="XMLID_115_">
				<polygon id="XMLID_118_" style="fill:#3B2F47;"
					points="285.69,183.129 285.69,187.204 364.395,181.77 364.395,176.564 			" />
				<polygon id="XMLID_117_" style="fill:#3B2F47;"
					points="280.096,191.731 358.358,184.713 358.358,188.222 280.096,194.955 			" />
				<polygon id="XMLID_116_" style="fill:#3B2F47;"
					points="283.879,198.07 362.433,192.184 362.433,194.955 283.879,200.334 			" />
			</g>
			<g id="XMLID_119_">
				<polygon id="XMLID_125_" style="fill:#3B2F47;"
					points="277.132,218.466 276.974,222.538 355.831,220.142 356.031,214.939 			" />
				<polygon id="XMLID_121_" style="fill:#3B2F47;"
					points="271.211,226.846 349.685,222.85 349.55,226.356 271.086,230.068 			" />
				<polygon id="XMLID_120_" style="fill:#3B2F47;"
					points="274.746,233.326 353.469,230.472 353.362,233.241 274.659,235.588 			" />
			</g>
			<polygon id="XMLID_109_" style="fill:#30A100;" points="256.477,109.391 263.098,114.261 271.405,100.259 263.941,100.259 
			260.806,108.532 257.942,105.283 		" />
			<polygon id="XMLID_127_" style="fill:#30A100;" points="259.049,146.343 265.67,151.213 273.977,137.211 266.513,137.211 
			263.378,145.484 260.514,142.235 		" />
			<polygon id="XMLID_128_" style="fill:#30A100;" points="265.082,190.58 271.703,195.449 280.01,181.448 272.546,181.448 
			269.412,189.721 266.547,186.471 		" />
		</g>
		<g id="XMLID_82_">
			<g id="XMLID_78_">
				<path id="XMLID_69_" style="fill:#372842;"
					d="M163.253,400.691l0.239,4.058c0,0,8.503,4.37,8.79,4.752
				c0.286,0.382-11.893,0.5-13.277-0.121c-1.385-0.621-0.955-2.483-1.862-8.45C156.235,394.962,163.253,400.691,163.253,400.691z" />
				<path id="XMLID_70_" style="fill:#372842;"
					d="M191.707,396.013l0.239,4.058c0,0,8.503,4.37,8.79,4.752
				c0.286,0.382-11.893,0.5-13.277-0.121c-1.384-0.621-0.955-2.483-1.862-8.45C184.689,390.284,191.707,396.013,191.707,396.013z" />
				<path id="XMLID_60_" style="fill:#372842;" d="M188.795,282.291c0,0,7.927,59.2,8.069,64.547
				c0.143,5.347-4.691,47.169-4.715,51.752c0,0-4.417,1.146-6.708,0.955c0,0-7.531-22.725-0.274-44.877
				c0,0-13.262-43.541-13.559-56.526C171.312,285.156,188.795,282.291,188.795,282.291z" />
				<path id="XMLID_59_" style="fill:#53405E;" d="M188.795,282.291c-0.382,1.146-14.323,46.023-17.569,65.12
				c-3.246,19.097-6.111,36.093-6.493,54.426c0,0-6.302,1.146-8.212,0c0,0-3.055-17.76-4.01-32.655
				c-0.955-14.896,8.976-44.305,8.021-56.908c-0.955-12.604-5.538-24.444-5.538-24.444L188.795,282.291z" />
				<path id="XMLID_71_" style="fill:#5486B9;" d="M177.005,197.361c-1.592-1.549-3.448-2.732-5.88-3.052
				c-2.467-0.325-5.875-0.445-8.277,0.424c0,0-17.688,6.411-21.986,15.693c-4.298,9.282,13.722,65.874,14.739,79.087
				c0,0,26.225,0,38.11-4.781c0,0-5.698-33.196-10.475-58.617c19.476,28.485,25.03,15.373,25.733,13.089
				c0.361-1.174-2.024-3.831-2.601-4.663c-2.223-3.203-4.604-6.298-6.991-9.379c-3.684-4.754-7.452-9.443-11.228-14.124
				c-1.913-2.371-3.829-4.739-5.737-7.113C180.652,201.738,179.018,199.319,177.005,197.361z" />
				<path id="XMLID_65_" style="fill:#5486B9;" d="M207.718,252.214c0,0,26.527-18.428,29.583-20.147c0,0-1.528-6.684-4.201-6.875
				c-2.674-0.191-32.083,19.67-32.083,19.67L207.718,252.214z" />
				<path id="XMLID_57_" style="fill:#DB9171;" d="M159.579,181.079c0,0,0.002,14.513,0,17.951c0,0,2.664,1.91,5.055,1.91
				c2.391,0,6.055-1.408,6.055-1.408l-1.182-18.452H159.579z" />
				<g id="XMLID_66_">
					<path id="XMLID_44_" style="fill:#DB9171;" d="M144.443,167.27c0,0-2.292-5.156-5.299-2.578
					c-3.008,2.578,0.286,9.883,6.445,8.737L144.443,167.27z" />
					<path id="XMLID_47_" style="fill:#DB9171;" d="M184.081,167.27c0,0,2.292-5.156,5.299-2.578
					c3.008,2.578-0.286,9.883-6.445,8.737L184.081,167.27z" />
					<path id="XMLID_43_" style="fill:#F7B390;"
						d="M164.733,191.141c-7.064-0.236-17.76-7.448-18.906-11.076s-3.055-28.645,0-31.701
					c3.055-3.056,32.274-4.774,36.666,1.146c4.392,5.92,2.17,28.396,0.859,31.51C181.825,184.648,170.462,191.332,164.733,191.141z" />
					<path id="XMLID_31_" style="fill:#3B2F47;" d="M144.604,170.451L144.604,170.451c0,0,0.698-9.053,1.414-10.056
					c0.716-1.003,7.591-7.734,7.877-10.312c0.286-2.578-3.581-13.32-8.307-14.323c-4.726-1.003-8.546,24.441-6.254,27.735
					C141.626,166.789,141.471,161.888,144.604,170.451z" />
					<path id="XMLID_45_" style="fill:#3B2F47;" d="M184.403,170.451c0,0,7.448-12.927,5.872-24.883
					c-1.576-11.956-10.599-20.406-16.757-21.695c-6.159-1.289-24.778,7.161-26.497,15.612c0,0-2.327,14.895,35.914,16.614
					C182.935,156.098,184.594,159.025,184.403,170.451z" />
					<path id="XMLID_50_" style="fill:#3B2F47;" d="M157.682,159.921c-0.569-0.383-1.303-0.603-1.926-0.748
					c-0.79-0.184-1.617-0.189-2.416-0.059c-1.58,0.258-3.142,1.055-4.135,2.333c-0.392,0.484-0.713,1.199-0.336,1.695
					c0.25,0.329,0.727,0.409,1.13,0.317c0.403-0.092,0.758-0.322,1.122-0.519c1.305-0.708,2.82-1.024,4.299-0.895
					c0.555,0.048,1.114,0.157,1.666,0.083c0.552-0.075,1.119-0.383,1.303-0.909c0.107-0.307,0.013-0.601-0.192-0.844
					C158.052,160.202,157.877,160.052,157.682,159.921z" />
					<path id="XMLID_48_" style="fill:#3B2F47;" d="M172.558,159.921c0.569-0.383,1.303-0.603,1.926-0.748
					c0.79-0.184,1.617-0.189,2.416-0.059c1.58,0.258,3.142,1.055,4.135,2.333c0.393,0.484,0.713,1.199,0.336,1.695
					c-0.25,0.329-0.727,0.409-1.13,0.317c-0.403-0.092-0.758-0.322-1.122-0.519c-1.305-0.708-2.82-1.024-4.299-0.895
					c-0.555,0.048-1.114,0.157-1.666,0.083c-0.553-0.075-1.119-0.383-1.303-0.909c-0.107-0.307-0.013-0.601,0.192-0.844
					C172.189,160.202,172.364,160.052,172.558,159.921z" />
					<path id="XMLID_46_" style="fill:#3B2F47;" d="M153.888,166.085c0.914-0.851,2.114-1.207,3.478-0.417
					c1.119,0.648,1.753,2.095,1.346,3.323c-0.035,0.106-0.081,0.215-0.169,0.283c-0.187,0.145-0.476,0.033-0.617-0.157
					c-0.141-0.19-0.182-0.434-0.257-0.658c-0.262-0.784-1.005-1.385-1.827-1.475c-1.338-0.147-1.948,0.803-2.488,1.822
					c-0.168,0.317-0.407,0.626-0.749,0.732c-0.826,0.257-0.186-1.141-0.062-1.438C152.859,167.341,153.318,166.617,153.888,166.085z
					" />
					<path id="XMLID_53_" style="fill:#3B2F47;"
						d="M177.571,166.085c-0.914-0.851-2.114-1.207-3.478-0.417
					c-1.119,0.648-1.753,2.095-1.346,3.323c0.035,0.106,0.081,0.215,0.169,0.283c0.187,0.145,0.476,0.033,0.617-0.157
					c0.141-0.19,0.182-0.434,0.257-0.658c0.262-0.784,1.005-1.385,1.827-1.475c1.338-0.147,1.948,0.803,2.488,1.822
					c0.168,0.317,0.407,0.626,0.75,0.732c0.825,0.257,0.186-1.141,0.062-1.438C178.6,167.341,178.141,166.617,177.571,166.085z" />
					<path id="XMLID_55_" style="fill:#FF6551;" d="M166.583,167.131c-0.512-1.602-2.302-1.596-3.165-0.302
					c-1.027,1.54-0.352,4.209-0.368,5.934c-0.005,0.579-0.009,1.171,0.173,1.721c0.182,0.55,0.586,1.061,1.145,1.212
					c0.774,0.21,1.59-0.342,1.954-1.057c0.363-0.714,0.384-1.548,0.396-2.349c0.017-1.06,0.033-2.12,0.05-3.181
					C166.778,168.445,166.786,167.767,166.583,167.131z" />
					<path id="XMLID_52_" style="fill:#FF6551;"
						d="M148.182,174.926c0.397-1.605,2.111-2.766,3.75-2.54
					c1.638,0.226,2.973,1.809,2.921,3.462c-0.053,1.653-1.486,3.147-3.135,3.269C149.5,179.279,147.649,177.079,148.182,174.926z" />
					<path id="XMLID_54_" style="fill:#FF6551;"
						d="M177.32,172.086c1.325-0.034,2.688,0.583,3.406,1.697
					c0.919,1.426,0.577,3.492-0.683,4.628c-1.26,1.136-3.264,1.292-4.743,0.462C171.509,176.745,173.262,172.189,177.32,172.086z" />
					<path id="XMLID_56_" style="fill:#FFFFFF;"
						d="M169.385,177.779c0.393-0.118,0.89-0.219,1.152,0.096
					c0.155,0.186,0.159,0.452,0.15,0.694c-0.049,1.323-0.264,2.676-0.928,3.821c-0.665,1.145-1.847,2.053-3.17,2.107
					c-1.798,0.074-3.324-1.401-4.097-3.027c-0.219-0.461-0.428-1.049-0.853-1.364c-0.54-0.4-1.288-0.05-1.761-0.375
					c-0.82-0.564,0.237-1.215,0.936-1.325c1.302-0.206,2.871,0.238,4.225,0.151C166.511,178.462,167.972,178.202,169.385,177.779z" />
				</g>
				<path id="XMLID_64_" style="fill:#00527C;" d="M122.816,310.746l122.315-112.862l24.921-16.805l-15.755,26.831l-121.365,115.44
				C132.932,323.349,123.675,319.912,122.816,310.746z" />
				<path id="XMLID_79_" style="fill:none;stroke:#053E68;stroke-miterlimit:10;" d="M132.178,307.784
				c27.343-25.559,85.592-78.416,112.935-103.976" />
				<path id="XMLID_80_" style="fill:none;stroke:#053E68;stroke-miterlimit:10;" d="M129.916,316.654
				c30.544-26.952,89.214-81.139,119.578-109.692" />
				<path id="XMLID_68_" style="fill:#F7B390;" d="M160.387,284.27c0,0,4.716,6.853,6.148,7.426c1.432,0.573,6.013-4.643,5.069-5.132
				c-0.944-0.489-5.296-2.03-4.579-2.746c0.716-0.716,3.535-1.621,1.959-2.194s-9.98-1.053-7.879-1.053
				C161.105,280.573,158.635,281.821,160.387,284.27z" />
				<path id="XMLID_62_" style="fill:#5486B9;" d="M140.43,256.435c5.381-11.915,10.806-25.222,11.946-38.332
				c0.217-2.5,0.402-5.281-0.4-7.701c-1.064-3.212-4.559-3.969-7.513-3.111c-4.011,1.165-5.32,4.446-6.423,8.162
				c-1.194,4.025-2.237,8.096-3.234,12.174c-1.99,8.144-3.89,16.365-5.182,24.652c-0.241,1.547-0.94,3.863-0.462,5.426
				c0.955,3.122,28.837,26.592,31.13,26.993c2.293,0.401,3.268-2.865,3.268-2.865L140.43,256.435z" />
				<path id="XMLID_63_" style="fill:#F7B390;" d="M236.346,231.494l0.229-0.199c3.597-3.125,5.586-7.704,5.44-12.467
				c-0.115-3.728-0.334-7.403-0.704-7.195c-3.231,1.814-6.302,6.111-6.111,8.403c0.191,2.292,1.504,5.408-1.062,7.048
				C234.138,227.084,234.321,231.183,236.346,231.494z" />
				<path id="XMLID_67_" style="fill:#F7B390;" d="M240.186,226.736c0,0,3.861-5.62,4.243-7.052c0.382-1.432-1.814-3.628-4.01,1.05
				C238.223,225.413,240.186,226.736,240.186,226.736z" />
				<path id="XMLID_58_"
					style="fill:none;stroke:#285B84;stroke-linecap:round;stroke-linejoin:round;stroke-miterlimit:10;" d="
				M142.976,209.218c2.574-0.492,5.39,0.693,6.838,2.878c2.638,3.981,2.75,8.918,1.77,13.452c-0.641,2.967-1.817,5.743-2.807,8.602
				c-1.114,3.216-2.084,6.468-3.01,9.741" />
				<path id="XMLID_61_"
					style="fill:none;stroke:#285B84;stroke-linecap:round;stroke-linejoin:round;stroke-miterlimit:10;"
					d="
				M158,198.075c0.318,2.864,2.252,5.524,4.928,6.591c2.676,1.067,5.983,0.425,7.977-1.655c1.994-2.08,2.473-5.501,1.022-7.991" />
				<path id="XMLID_72_"
					style="fill:none;stroke:#285B84;stroke-linecap:round;stroke-linejoin:round;stroke-miterlimit:10;" d="
				M177.705,203.808c3.035,10.386,5.313,20.992,6.812,31.707" />
				<path id="XMLID_73_"
					style="fill:none;stroke:#285B84;stroke-linecap:round;stroke-linejoin:round;stroke-miterlimit:10;" d="
				M140.442,256.73c7.628,8.263,15.165,16.611,22.609,25.04" />
				<path id="XMLID_74_"
					style="fill:none;stroke:#285B84;stroke-linecap:round;stroke-linejoin:round;stroke-miterlimit:10;" d="
				M133.888,257.578c1.344-1.093,3.202-1.523,4.889-1.133" />
				<path id="XMLID_75_"
					style="fill:none;stroke:#285B84;stroke-linecap:round;stroke-linejoin:round;stroke-miterlimit:10;" d="
				M134.374,254.05c1.183-0.25,2.466,0.015,3.453,0.714" />
				<path id="XMLID_76_"
					style="fill:none;stroke:#285B84;stroke-linecap:round;stroke-linejoin:round;stroke-miterlimit:10;" d="
				M168.065,265.857c4.728-4.437,9.303-9.036,13.716-13.786" />
				<path id="XMLID_77_"
					style="fill:none;stroke:#285B84;stroke-linecap:round;stroke-linejoin:round;stroke-miterlimit:10;" d="
				M175.136,255.288c1.819-1.451,3.513-3.059,5.056-4.801" />
			</g>
			<path id="XMLID_84_" style="fill:#FFB666;" d="M262.974,185.851l-17.844,12.033l4.726,1.289l-1.003,3.867h5.156l0.843,3.923
			l10.871-18.514C264.997,187.424,264.087,186.529,262.974,185.851z" />
			<path id="XMLID_85_" style="fill:#3B2F47;"
				d="M262.974,185.851c1.112,0.678,2.023,1.573,2.75,2.597l4.328-7.37L262.974,185.851z" />
			<path id="XMLID_81_" style="fill:none;stroke:#053E68;stroke-miterlimit:10;" d="M132.178,307.784" />
		</g>
	</g>
	<g id="DESIGNED_BY_FREEPIK">
		<g id="XMLID_2_">
			<g id="XMLID_319_">
				<!-- <g id="XMLID_338_">
					<path id="XMLID_346_" style="fill:#9EB7C7;" d="M260.104,465.465c-0.432,0.443-0.803,0.931-1.108,1.453l-0.465-0.241
					c-0.067-0.298-0.349-0.503-0.659-0.466c-0.331,0.039-0.568,0.339-0.529,0.67s0.339,0.568,0.67,0.529
					c0.065-0.008,0.127-0.026,0.184-0.052l0.451,0.234c-0.251,0.554-0.433,1.139-0.539,1.744l0.746,0.132
					c0.23-1.306,0.85-2.507,1.792-3.473L260.104,465.465z" />
					<path id="XMLID_345_" style="fill:#9EB7C7;" d="M265.592,463.163c-0.171,0-0.341,0.006-0.51,0.017l-0.074-0.626
					c0.188-0.149,0.296-0.389,0.266-0.645c-0.046-0.393-0.402-0.674-0.795-0.628s-0.674,0.402-0.628,0.795
					c0.03,0.254,0.189,0.461,0.405,0.564l0.073,0.624c-0.714,0.116-1.403,0.332-2.06,0.646l0.327,0.684
					c0.934-0.447,1.942-0.673,2.995-0.673c0.496,0,0.993,0.053,1.475,0.158l0.161-0.741
					C266.693,463.222,266.142,463.163,265.592,463.163z" />
					<path id="XMLID_344_" style="fill:#9EB7C7;" d="M272.194,465.711c0.331-0.04,0.566-0.341,0.525-0.672
					c-0.04-0.331-0.341-0.566-0.672-0.526c-0.309,0.038-0.535,0.304-0.53,0.609l-0.416,0.363c-0.418-0.43-0.89-0.813-1.408-1.139
					l-0.404,0.641c1.134,0.715,2.021,1.726,2.563,2.925l0.691-0.313c-0.251-0.554-0.568-1.072-0.942-1.545l0.402-0.351
					C272.065,465.716,272.129,465.719,272.194,465.711z" />
					<path id="XMLID_343_" style="fill:#9EB7C7;"
						d="M265.044,473.372c-0.386,0.023-0.775,0.035-1.157,0.035
					c-0.88,0-1.733-0.061-2.478-0.179c-0.39-0.062-0.846-0.155-1.27-0.292c1.046,1.861,3.069,3.125,5.388,3.125
					c2.855,0,5.262-1.916,5.95-4.504c-0.682,0.449-1.505,0.825-2.459,1.123C267.839,473.047,266.464,473.286,265.044,473.372z" />
					<path id="XMLID_339_" style="fill:#9EB7C7;" d="M265.592,464.68c-3.352,0-6.08,2.666-6.08,5.943
					c0,0.426,0.046,0.849,0.137,1.261c0.674,0.483,2.706,0.89,5.348,0.731c2.879-0.173,5.297-0.957,6.672-2.159
					c-0.005-0.195-0.021-0.39-0.045-0.582C271.244,466.913,268.65,464.68,265.592,464.68z M263.432,471.194
					c-1.02,0-1.85-0.83-1.85-1.85c0-1.02,0.83-1.85,1.85-1.85c1.02,0,1.85,0.83,1.85,1.85
					C265.282,470.365,264.452,471.194,263.432,471.194z M268.17,470.286c-0.75,0-1.36-0.61-1.36-1.36s0.61-1.361,1.36-1.361
					c0.75,0,1.361,0.61,1.361,1.361S268.92,470.286,268.17,470.286z" /> -->
				<!-- </g>
				<path id="XMLID_336_" style="fill:#9EB7C7;" d="M281.595,466.547c-0.295-0.116-0.806-0.309-1.382-0.237
				c-0.551,0.069-0.844,0.341-0.844,1.007v0.866h2.228v1.717h-2.228v5.455h-1.932v-5.455h-1.34v-1.717h1.34v-0.888
				c0-1.68,0.896-2.783,2.568-2.783c0.642,0,1.157,0.122,1.59,0.308L281.595,466.547z" />
				<path id="XMLID_334_" style="fill:#9EB7C7;" d="M286.298,469.879c-0.177-0.03-0.358-0.046-0.526-0.046
				c-0.896,0-1.51,0.548-1.51,1.614v3.908h-1.932v-7.172h1.873v0.785c0.451-0.673,1.14-0.977,2.021-0.977
				c0.414,0,0.848,0.128,1.094,0.337L286.298,469.879z" />
				<path id="XMLID_331_" style="fill:#9EB7C7;" d="M293.965,471.757c0,0.222-0.015,0.489-0.037,0.651h-5.085
				c0.207,1.036,0.933,1.488,1.843,1.488c0.622,0,1.295-0.252,1.813-0.688l1.132,1.243c-0.814,0.748-1.85,1.088-3.057,1.088
				c-2.198,0-3.723-1.495-3.723-3.753c0-2.258,1.48-3.797,3.627-3.797C292.544,467.99,293.958,469.522,293.965,471.757z
				 M288.851,471.091h3.175c-0.177-0.918-0.733-1.436-1.562-1.436C289.554,469.655,289.021,470.203,288.851,471.091z" />
				<path id="XMLID_328_" style="fill:#9EB7C7;" d="M301.618,471.757c0,0.222-0.015,0.489-0.037,0.651h-5.085
				c0.207,1.036,0.932,1.488,1.843,1.488c0.622,0,1.295-0.252,1.813-0.688l1.132,1.243c-0.814,0.748-1.85,1.088-3.057,1.088
				c-2.198,0-3.723-1.495-3.723-3.753c0-2.258,1.48-3.797,3.627-3.797C300.197,467.99,301.611,469.522,301.618,471.757z
				 M296.504,471.091h3.175c-0.178-0.918-0.733-1.436-1.562-1.436C297.207,469.655,296.674,470.203,296.504,471.091z" />
				<path id="XMLID_325_" style="fill:#9EB7C7;" d="M309.964,471.764c0,2.154-1.495,3.775-3.471,3.775
				c-0.962,0-1.643-0.378-2.109-0.933v3.708h-1.924v-10.133h1.887v0.792c0.466-0.585,1.155-0.984,2.139-0.984
				C308.469,467.99,309.964,469.61,309.964,471.764z M304.287,471.764c0,1.132,0.747,1.976,1.843,1.976
				c1.14,0,1.85-0.881,1.85-1.976c0-1.095-0.71-1.976-1.85-1.976C305.035,469.788,304.287,470.632,304.287,471.764z" />
				<path id="XMLID_322_" style="fill:#9EB7C7;" d="M313.068,465.836c0,0.696-0.54,1.229-1.236,1.229
				c-0.696,0-1.229-0.533-1.229-1.229c0-0.696,0.533-1.243,1.229-1.243C312.527,464.592,313.068,465.14,313.068,465.836z
				 M312.809,475.354h-1.932v-7.172h1.932V475.354z" />
				<path id="XMLID_320_" style="fill:#9EB7C7;" d="M316.032,470.736l2.702-2.554h2.368l-3.479,3.375l3.501,3.797h-2.376
				l-2.716-2.901v2.901H314.1v-10.658h1.932V470.736z" /> -->
			</g>
			<!-- <g id="XMLID_3_">
				<path id="XMLID_4_" style="fill:#9EB7C7;" d="M184.412,475.289v-1.055c-0.527,0.718-1.391,1.23-2.387,1.23
				c-1.846,0-3.149-1.406-3.149-3.706c0-2.256,1.289-3.721,3.149-3.721c0.952,0,1.816,0.469,2.387,1.245v-3.765h1.099v9.77H184.412z
				 M184.412,473.37v-3.208c-0.395-0.615-1.245-1.143-2.124-1.143c-1.421,0-2.27,1.172-2.27,2.739c0,1.567,0.85,2.724,2.27,2.724
				C183.168,474.483,184.017,473.986,184.412,473.37z" />
				<path id="XMLID_6_" style="fill:#9EB7C7;" d="M186.932,471.744c0-2.051,1.465-3.706,3.486-3.706c2.139,0,3.398,1.67,3.398,3.794
				v0.279h-5.727c0.088,1.333,1.025,2.446,2.549,2.446c0.805,0,1.626-0.322,2.182-0.894l0.527,0.718
				c-0.703,0.703-1.655,1.084-2.812,1.084C188.44,475.465,186.932,473.956,186.932,471.744z M190.403,468.947
				c-1.509,0-2.256,1.274-2.314,2.358h4.643C192.718,470.25,192.015,468.947,190.403,468.947z" />
				<path id="XMLID_9_" style="fill:#9EB7C7;" d="M194.607,474.351l0.571-0.791c0.469,0.542,1.362,1.011,2.329,1.011
				c1.084,0,1.67-0.513,1.67-1.216c0-1.714-4.38-0.659-4.38-3.281c0-1.098,0.952-2.036,2.636-2.036c1.201,0,2.051,0.454,2.622,1.026
				l-0.513,0.762c-0.424-0.513-1.201-0.894-2.109-0.894c-0.967,0-1.567,0.483-1.567,1.113c0,1.552,4.38,0.527,4.38,3.281
				c0,1.187-0.952,2.138-2.783,2.138C196.306,475.465,195.325,475.113,194.607,474.351z" />
				<path id="XMLID_11_" style="fill:#9EB7C7;" d="M201.477,466.471c0-0.41,0.337-0.747,0.732-0.747c0.41,0,0.747,0.337,0.747,0.747
				c0,0.41-0.337,0.732-0.747,0.732C201.814,467.203,201.477,466.881,201.477,466.471z M201.667,475.289v-7.075h1.099v7.075H201.667
				z" />
				<path id="XMLID_14_" style="fill:#9EB7C7;" d="M204.582,477.105l0.556-0.82c0.586,0.703,1.289,0.967,2.3,0.967
				c1.172,0,2.27-0.571,2.27-2.124v-1.011c-0.513,0.718-1.377,1.26-2.373,1.26c-1.845,0-3.149-1.377-3.149-3.662
				c0-2.27,1.289-3.677,3.149-3.677c0.952,0,1.802,0.469,2.373,1.245v-1.069h1.098v6.87c0,2.344-1.641,3.076-3.369,3.076
				C206.237,478.16,205.417,477.926,204.582,477.105z M209.709,473.253v-3.091c-0.381-0.615-1.23-1.143-2.109-1.143
				c-1.421,0-2.27,1.128-2.27,2.695c0,1.553,0.849,2.695,2.27,2.695C208.478,474.41,209.328,473.868,209.709,473.253z" />
				<path id="XMLID_17_" style="fill:#9EB7C7;" d="M217.413,475.289v-4.629c0-1.245-0.63-1.641-1.582-1.641
				c-0.865,0-1.685,0.527-2.095,1.099v5.17h-1.099v-7.075h1.099v1.025c0.498-0.586,1.464-1.201,2.519-1.201
				c1.48,0,2.256,0.747,2.256,2.285v4.966H217.413z" />
				<path id="XMLID_19_" style="fill:#9EB7C7;" d="M219.932,471.744c0-2.051,1.465-3.706,3.486-3.706c2.139,0,3.398,1.67,3.398,3.794
				v0.279h-5.727c0.088,1.333,1.025,2.446,2.549,2.446c0.806,0,1.626-0.322,2.183-0.894l0.527,0.718
				c-0.703,0.703-1.655,1.084-2.812,1.084C221.441,475.465,219.932,473.956,219.932,471.744z M223.404,468.947
				c-1.509,0-2.256,1.274-2.314,2.358h4.643C225.718,470.25,225.015,468.947,223.404,468.947z" />
				<path id="XMLID_22_" style="fill:#9EB7C7;" d="M233.35,475.289v-1.055c-0.527,0.718-1.392,1.23-2.388,1.23
				c-1.846,0-3.149-1.406-3.149-3.706c0-2.256,1.289-3.721,3.149-3.721c0.952,0,1.817,0.469,2.388,1.245v-3.765h1.098v9.77H233.35z
				 M233.35,473.37v-3.208c-0.396-0.615-1.245-1.143-2.124-1.143c-1.421,0-2.27,1.172-2.27,2.739c0,1.567,0.849,2.724,2.27,2.724
				C232.105,474.483,232.954,473.986,233.35,473.37z" />
				<path id="XMLID_25_" style="fill:#9EB7C7;" d="M239.692,475.289v-9.77h1.098v3.765c0.572-0.776,1.421-1.245,2.388-1.245
				c1.845,0,3.149,1.465,3.149,3.721c0,2.299-1.304,3.706-3.149,3.706c-0.996,0-1.86-0.513-2.388-1.23v1.055H239.692z
				 M242.9,474.483c1.436,0,2.285-1.157,2.285-2.724c0-1.568-0.85-2.739-2.285-2.739c-0.864,0-1.728,0.527-2.109,1.143v3.208
				C241.171,473.986,242.036,474.483,242.9,474.483z" />
				<path id="XMLID_28_" style="fill:#9EB7C7;" d="M247.528,477.061c0.161,0.073,0.425,0.117,0.601,0.117
				c0.483,0,0.805-0.161,1.055-0.747l0.469-1.069l-2.959-7.148h1.187l2.358,5.8l2.344-5.8h1.201l-3.545,8.51
				c-0.425,1.025-1.143,1.421-2.08,1.435c-0.234,0-0.601-0.044-0.805-0.103L247.528,477.061z" />
			</g> -->
		</g>
	</g>
</svg>