<?xml version="1.0" encoding="utf-8"?>
<!-- Generator: Adobe Illustrator 27.5.0, SVG Export Plug-In . SVG Version: 6.00 Build 0)  -->
<svg version="1.1" xmlns="http://www.w3.org/2000/svg" xmlns:xlink="http://www.w3.org/1999/xlink" x="0px" y="0px"
	viewBox="0 0 500 500" style="enable-background:new 0 0 500 500;" xml:space="preserve">
	<g id="BACKGROUND">
		<g>
			<!-- <rect style="fill:#F9FBFC;" width="500" height="500" /> -->
			<g>
				<path style="fill:#DCE8EF;" d="M314.507,436.697c1.154-6.471,1.757-13.134,1.757-19.937c0-62.286-50.493-112.78-112.78-112.78
				c-62.286,0-112.78,50.493-112.78,112.78c0,6.803,0.603,13.466,1.757,19.937H314.507z" />

				<ellipse transform="matrix(0.7071 -0.7071 0.7071 0.7071 -101.7513 149.9623)" style="fill:#DCE8EF;"
					cx="130.145" cy="197.806" rx="66.397" ry="66.398" />

				<ellipse transform="matrix(0.8947 -0.4467 0.4467 0.8947 -25.6123 173.1212)" style="fill:#DCE8EF;"
					cx="354.347" cy="140.879" rx="32.324" ry="32.324" />

				<ellipse transform="matrix(0.2096 -0.9778 0.9778 0.2096 6.8384 386.5441)" style="fill:#DCE8EF;"
					cx="242.519" cy="189.042" rx="7.258" ry="7.258" />
				<circle style="fill:#DCE8EF;" cx="393.441" cy="395.521" r="14.36" />
				<path style="fill:#DCE8EF;" d="M430.765,448.587H69.235c-3.018,0-5.488-2.469-5.488-5.488l0,0c0-3.018,2.469-5.488,5.488-5.488
				h361.529c3.018,0,5.488,2.47,5.488,5.488l0,0C436.253,446.117,433.783,448.587,430.765,448.587z" />
				<g>
					<g>
						<path style="fill:#DCE8EF;" d="M385.181,213.883h-21.966v-27.227h21.966V213.883z M365.215,211.883h17.966v-23.227h-17.966
						V211.883z" />
					</g>
					<g>
						<g>
							<rect x="368.965" y="191.044" style="fill:#DCE8EF;" width="10.467" height="2" />
						</g>
						<g>
							<rect x="368.965" y="195.167" style="fill:#DCE8EF;" width="10.467" height="2" />
						</g>
						<g>
							<rect x="368.965" y="199.292" style="fill:#DCE8EF;" width="10.467" height="2" />
						</g>
						<g>
							<rect x="368.965" y="203.415" style="fill:#DCE8EF;" width="5.7" height="2" />
						</g>
					</g>
				</g>
				<g>
					<g>
						<path style="fill:#DCE8EF;" d="M300.621,141.379h-24.264v-16.04h24.264V141.379z M278.357,139.379h20.264v-12.04h-20.264
						V139.379z" />
					</g>
					<g>
						<polygon style="fill:#DCE8EF;" points="288.489,136.486 276.734,127.122 277.98,125.557 288.489,133.929 298.998,125.557 
						300.244,127.122 					" />
					</g>
				</g>
				<g>
					<g>
						<path style="fill:#DCE8EF;" d="M249.075,114.077c-7.254,0-13.155-5.902-13.155-13.156s5.901-13.155,13.155-13.155
						c7.254,0,13.156,5.901,13.156,13.155S256.329,114.077,249.075,114.077z M249.075,89.766c-6.151,0-11.155,5.004-11.155,11.155
						c0,6.151,5.004,11.156,11.155,11.156s11.156-5.004,11.156-11.156C260.231,94.77,255.227,89.766,249.075,89.766z" />
					</g>
					<g>
						<polygon style="fill:#DCE8EF;" points="246.311,106.282 244.858,104.908 248.619,100.929 248.619,92.478 250.619,92.478 
						250.619,101.725 					" />
					</g>
				</g>
				<g>
					<path style="fill:#F9FBFC;" d="M362.718,149.398h-11.495c-1.528,0-2.771-1.244-2.771-2.772v-2.648l-6.674,3.853v-13.904
					l6.674,3.853v-2.648c0-1.528,1.243-2.772,2.771-2.772h11.495c1.528,0,2.771,1.244,2.771,2.772v11.495
					C365.489,148.155,364.246,149.398,362.718,149.398z M350.451,141.244v5.383c0,0.426,0.346,0.772,0.771,0.772h11.495
					c0.426,0,0.771-0.346,0.771-0.772v-11.495c0-0.426-0.346-0.772-0.771-0.772h-11.495c-0.426,0-0.771,0.346-0.771,0.772V141.244z
					 M343.777,137.391v6.977l6.042-3.488L343.777,137.391z" />
				</g>
				<path style="fill:#DCE8EF;" d="M292.011,69.697h-31.801c-3.407,0-6.169-2.762-6.169-6.169l0,0c0-3.407,2.762-6.169,6.169-6.169
				h31.801c3.407,0,6.168,2.762,6.168,6.169l0,0C298.18,66.935,295.418,69.697,292.011,69.697z" />
				<path style="fill:#DCE8EF;" d="M310.519,95.605h-17.425c-3.407,0-6.169-2.762-6.169-6.168v0c0-3.407,2.762-6.168,6.169-6.168
				h17.425c3.407,0,6.169,2.762,6.169,6.168v0C316.688,92.843,313.926,95.605,310.519,95.605z" />
				<path style="fill:#F9FBFC;" d="M173.361,345.183h-17.425c-3.407,0-6.169-2.762-6.169-6.169l0,0c0-3.407,2.762-6.169,6.169-6.169
				h17.425c3.407,0,6.169,2.762,6.169,6.169l0,0C179.53,342.422,176.768,345.183,173.361,345.183z" />
				<path style="fill:#F9FBFC;" d="M89.685,167.255H72.259c-3.407,0-6.169-2.762-6.169-6.169l0,0c0-3.407,2.762-6.169,6.169-6.169
				h17.425c3.407,0,6.169,2.762,6.169,6.169l0,0C95.853,164.493,93.091,167.255,89.685,167.255z" />
				<path style="fill:#F9FBFC;" d="M218.489,315.248h-21.797c-1.996,0-3.615-1.618-3.615-3.615l0,0c0-1.996,1.618-3.615,3.615-3.615
				h21.797c1.996,0,3.615,1.618,3.615,3.615l0,0C222.104,313.629,220.485,315.248,218.489,315.248z" />
			</g>
		</g>
	</g>
	<g id="OBJECTS">
		<g>
			<g>
				<g>
					<g>
						<linearGradient id="SVGID_1_" gradientUnits="userSpaceOnUse" x1="372.0962" y1="429.7355"
							x2="379.2608" y2="442.145">
							<stop offset="0" style="stop-color:#3C2567" />
							<stop offset="0.2229" style="stop-color:#372462" />
							<stop offset="1" style="stop-color:#2A2252" />
						</linearGradient>
						<path style="fill:url(#SVGID_1_);" d="M368.656,434.565c-0.126,0.441-0.158,0.913-0.158,1.386c0,3.936,3.212,7.148,7.18,7.148
						s7.18-3.212,7.18-7.148c0-3.968-3.212-7.18-7.18-7.18c-0.504,0-0.976,0.063-1.449,0.157h-0.032
						C371.396,429.527,369.191,431.731,368.656,434.565z" />

						<linearGradient id="SVGID_00000114775740630661217670000011371446647775531691_"
							gradientUnits="userSpaceOnUse" x1="295.1725" y1="429.7338" x2="302.3359" y2="442.1412">
							<stop offset="0" style="stop-color:#3C2567" />
							<stop offset="0.2229" style="stop-color:#372462" />
							<stop offset="1" style="stop-color:#2A2252" />
						</linearGradient>
						<path style="fill:url(#SVGID_00000114775740630661217670000011371446647775531691_);" d="M298.747,428.771
						c-3.936,0-7.148,3.212-7.148,7.18c0,3.936,3.212,7.148,7.148,7.148c3.968,0,7.18-3.212,7.18-7.148
						c0-0.472-0.031-0.945-0.158-1.386c-0.535-2.834-2.74-5.038-5.542-5.637h-0.031
						C299.723,428.834,299.251,428.771,298.747,428.771z" />
						<path style="fill:#CFD1D2;" d="M340.918,427.007h-3.968l31.706,7.558c0.535-2.834,2.74-5.038,5.542-5.637l-33.28-7.967V427.007
						z" />
						<path style="fill:#CFD1D2;" d="M333.696,420.898l-33.469,8.03c2.803,0.598,5.007,2.803,5.542,5.637l31.737-7.558h-3.81V420.898
						z" />
					</g>
					<polygon style="fill:#CFD1D2;" points="332.053,426.325 332.053,430.941 334.932,430.941 339.405,430.941 342.403,430.941 
					342.403,426.373 342.403,345.584 332.053,345.584 				" />
					<polygon style="fill:#BABCBE;" points="332.053,349.692 332.053,350.007 334.932,350.007 339.405,350.007 342.403,350.007 
					342.403,349.695 342.403,345.584 332.053,345.584 				" />

					<linearGradient id="SVGID_00000122719410159592794290000014373760671670181270_"
						gradientUnits="userSpaceOnUse" x1="332.2527" y1="332.1041" x2="342.2275" y2="349.381">
						<stop offset="0" style="stop-color:#3C2567" />
						<stop offset="0.2229" style="stop-color:#372462" />
						<stop offset="1" style="stop-color:#2A2252" />
					</linearGradient>
					<polygon style="fill:url(#SVGID_00000122719410159592794290000014373760671670181270_);" points="325.677,335.901 
					325.677,345.584 332.053,345.584 342.403,345.584 348.803,345.584 348.803,335.901 				" />
					<rect x="348.994" y="295.931" style="fill:#CFD1D2;" width="10.707" height="28.43" />
					<path style="fill:#636BEC;" d="M296.126,328.168v3.926c0,2.094,1.713,3.807,3.807,3.807h25.744h23.127h25.744
					c2.094,0,3.807-1.713,3.807-3.807v-3.926c0-2.117-1.713-3.807-3.807-3.807h-14.847h-10.707h-49.061
					C297.839,324.361,296.126,326.051,296.126,328.168z" />
					<path style="fill:#636BEC;" d="M327.271,262.407v26.743c0,3.759,3.046,6.781,6.781,6.781h14.942h10.707h13.514
					c3.759,0,6.781-3.022,6.781-6.781v-26.743c0-3.759-3.022-6.781-6.781-6.781h-39.163
					C330.316,255.626,327.271,258.648,327.271,262.407z" />
				</g>
				<g>
					<g>

						<linearGradient id="SVGID_00000166667993638479717900000012979045865372562103_"
							gradientUnits="userSpaceOnUse" x1="114.3792" y1="46.6947" x2="214.9182" y2="220.8334">
							<stop offset="0" style="stop-color:#68ACFF" />
							<stop offset="0.2291" style="stop-color:#65A7FF" />
							<stop offset="0.4985" style="stop-color:#5B99FF" />
							<stop offset="0.787" style="stop-color:#4A81FF" />
							<stop offset="1" style="stop-color:#3B6BFF" />
						</linearGradient>

						<rect x="104.149" y="52.601"
							style="fill:url(#SVGID_00000166667993638479717900000012979045865372562103_);" width="121"
							height="162.326" />
						<path style="fill:#DCE8EF;" d="M223.961,53.789v159.949H105.336V53.789H223.961 M226.337,51.413h-2.376H105.336h-2.376v2.376
						v159.949v2.376h2.376h118.625h2.376v-2.376V53.789V51.413L226.337,51.413z" />
					</g>
					<g>
						<defs>

							<rect id="SVGID_00000123435403773781372700000010968587082042651779_" x="105.336" y="53.789"
								width="118.625" height="159.949" />
						</defs>
						<clipPath id="SVGID_00000159470529546333518820000015909795543581589675_">
							<use xlink:href="#SVGID_00000123435403773781372700000010968587082042651779_"
								style="overflow:visible;" />
						</clipPath>
						<g style="clip-path:url(#SVGID_00000159470529546333518820000015909795543581589675_);">

							<linearGradient id="SVGID_00000062914123429405968250000012680921155103803048_"
								gradientUnits="userSpaceOnUse" x1="182.3647" y1="86.9487" x2="193.7617" y2="106.689">
								<stop offset="0" style="stop-color:#5B2A8D" />
								<stop offset="0.1693" style="stop-color:#4B2786" />
								<stop offset="0.4267" style="stop-color:#38247D" />
								<stop offset="0.6972" style="stop-color:#2E2379" />
								<stop offset="1" style="stop-color:#2A2277" />
							</linearGradient>
							<path style="fill:url(#SVGID_00000062914123429405968250000012680921155103803048_);" d="M195.723,89.429
							c0.808-2.091,1.235-4.324,1.235-6.676c0-0.76-0.551-3.1-0.647-3.836c1.212-0.903,2.737-0.416,3.403-1.699
							c0.404,1.117,0.808,2.257,1.212,3.374c0.475,1.283,0.927,2.59,1.045,3.944c0.19,2.067-0.499,4.205-1.829,5.773
							c-0.808,0.95-1.829,1.711-2.685,2.59c-0.879,0.903-1.616,2.019-1.663,3.255c-0.024,0.831,0.261,1.639,0.428,2.447
							c0.451,2.494-0.57,5.322-2.756,6.581c-2.21,1.283-5.298,0.998-6.89,2.97c-0.713,0.879-0.95,2.043-1.544,3.017
							c-0.594,0.927-1.544,1.592-2.59,1.901c-2.138-1.259-4.728-2.423-7.793-3.54c-0.879-0.333-1.806-0.665-2.78-0.974
							c0.689-1.711,1.378-3.445,1.378-3.445s6.225,1.568,7.579,0.832c1.33-0.76,11.073-9.106,14.872-16.512H195.723z" />
							<path style="fill:#FFC8AF;" d="M196.869,80.483c0.166,0.713,0.09,1.527,0.09,2.27c0,3.265-0.698,7.393-2.868,9.959
							c-0.923,1.092-1.593,1.857-2.19,3.156c-0.562,1.224-1.03,2.838-1.883,3.88c-2.061,2.518-7.625,5.872-10.356,7.433
							c-1.354,0.736-6.413-2.071-6.413-2.071s-0.689,1.734-1.378,3.445l-5.464,4.728c-2.358-2.196-6.061-4.556-6.363-8.015
							c-0.158-1.81,0.34-3.606,0.855-5.348c1.135-3.842,2.371-7.653,3.669-11.443c0.339-0.991,0.69-1.995,1.294-2.851
							c0.73-1.035,1.787-1.791,2.87-2.446c7.182-4.343,15.99-4.935,24.38-4.673c0.949,0.029,1.942,0.081,2.757,0.566
							C196.457,79.423,196.738,79.921,196.869,80.483z" />
							<path style="fill:#E8B83F;" d="M166.406,113.282c-3.573-3.158-5.915-6.47-6.222-10.095l-3.994,0.737
							c0,0,0.044,4.493,1.653,7.774c1.61,3.282,2.338,4.767,2.338,4.767L166.406,113.282z" />

							<linearGradient id="SVGID_00000094612429766436199000000010427729321135956871_"
								gradientUnits="userSpaceOnUse" x1="139.2423" y1="182.8868" x2="164.7459" y2="227.0605">
								<stop offset="0" style="stop-color:#5B2A8D" />
								<stop offset="0.1693" style="stop-color:#4B2786" />
								<stop offset="0.4267" style="stop-color:#38247D" />
								<stop offset="0.6972" style="stop-color:#2E2379" />
								<stop offset="1" style="stop-color:#2A2277" />
							</linearGradient>
							<path style="fill:url(#SVGID_00000094612429766436199000000010427729321135956871_);" d="M128.581,189.042
							c0,0,2.123,31.111,1.564,32.258c-0.559,1.147,41.726,1.647,41.726,1.647l3.82-31.146L128.581,189.042z" />
							<path style="fill:#E8BA70;" d="M134.357,141.934l-4.134,49.868h-3.54c1.402-13.257,2.685-34.069,3.492-44.997
							C132.67,143.882,134.357,141.934,134.357,141.934z" />
							<path style="fill:#E8BA70;" d="M195.414,187.477c3.35,7.056,10.026,7.935,10.026,7.935c-2.922,0.95-5.512,1.521-7.507,1.568
							c-7.579,0.166-15.823-23.52-19.125-40.103c1.283-2.661,2.328-5.155,2.257-6.343c-0.095-1.592-0.38-10.216-0.57-16.939
							C180.495,133.595,192.041,180.445,195.414,187.477z" />
							<path style="fill:#FBD15B;" d="M178.808,156.878c-1.687,3.445-3.754,7.151-4.3,8.576c-0.737,1.877-2.661,13.59-2.97,26.347
							h-41.315l4.134-49.868c0,0-1.687,1.948-4.181,4.87c-6.771,7.935-19.624,23.093-20.883,25.611
							c-1.449,2.922-2.97,41.576-3.397,53.075c-2.78-1.592-9.741-2.21-15.11,0c-1.734-21.762-4.039-54.857-2.304-58.967
							c2.637-6.248,24.589-39.01,34.092-52.03c2.376-3.231,4.585-5.749,6.89-7.579c2.708-2.186,5.559-3.469,8.909-4.015
							c1.924,0.048,3.777,0.689,5.345,1.782c1.117,0.808,2.067,1.829,3.065,2.78c1.924,1.829,4.181,3.421,6.771,4.039
							c1.354,0.333,1.074-6.857,2.428-7.214l4.201,12.179l6.224-3.184l5.108,4.395l3.136-8.149c3.065,1.117,5.654,2.281,7.793,3.54
							c4.538,2.637,7.199,5.654,8.529,9.408c0,0.024,0.024,0.024,0.024,0.048c2.875,11.499,14.967,52.172,14.967,52.172l30.956-8.41
							c-1.426,3.469,0.428,10.928,2.803,12.782c-7.389,4.181-23.283,12.829-34.283,16.345c0,0-6.676-0.879-10.026-7.935
							c-3.374-7.032-14.92-53.883-14.92-53.883c0.19,6.723,0.475,15.348,0.57,16.939
							C181.136,151.722,180.091,154.217,178.808,156.878z" />
							<path style="fill:#F0F5F7;" d="M177.46,159.55c0.453-0.88,0.913-1.784,1.348-2.672c3.303,16.583,11.546,40.269,19.125,40.103
							c1.996-0.048,4.585-0.618,7.507-1.568c10.068-3.218,24.215-10.726,32.21-15.182c-3.366-3.189-3.638-9.314-3.416-13.215
							l-28.271,7.681c0,0-12.093-40.673-14.967-52.172c0-0.024-0.024-0.024-0.024-0.048c-1.331-3.754-3.991-6.771-8.529-9.408
							c-0.535-0.315-1.097-0.624-1.688-0.927l-5.064,41.327C175.691,153.467,176.389,155.871,177.46,159.55z" />
							<path style="fill:#DCE8EF;" d="M195.414,187.477c3.35,7.056,10.026,7.935,10.026,7.935c-2.922,0.95-5.512,1.521-7.507,1.568
							c-7.579,0.166-15.823-23.52-19.125-40.103c1.283-2.661,2.328-5.155,2.257-6.343c-0.095-1.592-0.38-10.216-0.57-16.939
							C180.495,133.595,192.041,180.445,195.414,187.477z" />
							<path style="fill:#F0F5F7;" d="M156.86,112.834L156.86,112.834c-0.568-5.243-1.223-7.537-0.732-9.503
							c0.492-1.966-3.604,2.13-3.604,2.13l-1.446,1.899l-8.712-6.691l-10.136,4.069c-4.377,1.757-8.116,4.781-10.744,8.698
							c-9.548,14.229-32.759,49.092-33.621,53.054c-1.086,4.993,1.25,54.811,1.25,54.811c4.588-0.983,18.351-0.819,18.351-0.819
							s1.307-45.597,2.621-47.352c1.314-1.755,19.069-25.13,19.069-25.13l-5.071,67.42l29.777-0.668
							C153.863,214.751,158.472,127.908,156.86,112.834z" />

							<linearGradient id="SVGID_00000183209293835355215590000008282449793651177388_"
								gradientUnits="userSpaceOnUse" x1="152.5776" y1="69.1826" x2="169.761" y2="98.9451">
								<stop offset="0" style="stop-color:#5B2A8D" />
								<stop offset="0.1693" style="stop-color:#4B2786" />
								<stop offset="0.4267" style="stop-color:#38247D" />
								<stop offset="0.6972" style="stop-color:#2E2379" />
								<stop offset="1" style="stop-color:#2A2277" />
							</linearGradient>
							<path style="fill:url(#SVGID_00000183209293835355215590000008282449793651177388_);" d="M196.554,79.75
							c-1.231,0.436-2.566,0.591-3.879,0.664c-3.879,0.216-7.347,0.61-10.597,2.993c-1.723,1.263-3.236,2.928-5.27,3.582
							c-0.807,0.26-1.742,0.393-2.26,1.064c-0.624,0.81-0.338,2.021-0.819,2.923c-0.885,1.657-3.746,1.379-4.547,3.079
							c-0.445,0.944-0.026,2.117-0.443,3.074c-0.373,0.856-1.315,1.31-2.219,1.548c-0.903,0.238-1.864,0.341-2.669,0.814
							c-1.804,1.059-2.265,3.601-4.023,4.733c-1.094,0.704-2.427,0.357-3.493,0.943c-1.084,0.595-1.531,1.967-2.382,2.795
							c-1.574,1.531-4.248,0.942-6.074-0.277c-3.1-2.069-5.502-4.687-9.508-4.786c-3.35,0.546-5.822,1.708-9.258,3.365
							c-1.552-2.425-0.809-5.565,1.244-7.553c1.057-1.023,2.363-1.742,3.559-2.599c0.486-0.348,0.969-0.737,1.25-1.265
							c0.473-0.887,0.293-1.996,0.681-2.923c0.53-1.265,1.955-1.875,3.277-2.243c1.321-0.368,2.762-0.666,3.699-1.667
							c1.548-1.653,1.007-4.369,2.004-6.403c0.912-1.859,2.978-2.867,4.993-3.343c1.658-0.391,3.715-0.792,4.21-2.423
							c0.179-0.59,0.095-1.234,0.265-1.826c0.484-1.69,2.619-2.158,3.958-3.297c1.418-1.207,1.896-3.155,2.796-4.785
							c3.507-6.351,13.893-7.322,20.275-6.23c5.01,0.858,9.756,3.277,13.408,6.811c3.112,3.01,8.636,9.687,2.882,12.765
							C197.274,79.467,196.919,79.621,196.554,79.75z" />
							<path style="fill:#E8B83F;" d="M174.65,109.528l-3.136,8.149l-5.108-4.395l5.464-4.728
							C172.845,108.863,173.771,109.196,174.65,109.528z" />
							<path style="fill:#FFC8AF;" d="M272.105,165.81c0.166,2.067-1.996,5.868-3.873,8.006c-1.901,2.162-5.037,3.682-10.24,3.872
							c-4.799,0.19-14.183-0.974-14.183-0.974s-1.544,0.903-4.086,2.352c-2.376-1.853-4.229-9.313-2.803-12.782l6.201-1.687
							c0,0,4.87-4.49,7.008-4.585c2.138-0.071,11.095-0.499,11.333,0.499c0.713,2.97-3.279,2.257-6.415,3.587
							c-3.16,1.33,0.095,1.117,1.711,1.188C258.396,165.359,271.914,163.743,272.105,165.81z" />
							<g>
								<path style="fill:#112B46;" d="M179.928,88.899c-0.231,1.099,0.472,2.177,1.57,2.408c1.099,0.231,2.177-0.472,2.408-1.57
								c0.231-1.098-0.472-2.177-1.57-2.408C181.237,87.098,180.159,87.801,179.928,88.899z" />
								<path style="fill:#112B46;" d="M188.375,93.562c-0.203,0.963,0.413,1.908,1.376,2.111c0.963,0.203,1.908-0.413,2.111-1.376
								c0.203-0.963-0.413-1.908-1.376-2.111C189.523,91.982,188.578,92.599,188.375,93.562z" />
								<path style="fill:#F4B298;" d="M184.42,98.227c0,0-2.298-1.811-2.73-1.944c-0.433-0.133-0.116,0.747,0.806,1.539
								C183.418,98.614,184.42,98.227,184.42,98.227z" />
								<path style="fill:#F4B298;" d="M178.995,102.836c0,0-1.554-1.234-1.84-1.305c-0.286-0.071-0.199,0.771,0.426,1.317
								C178.205,103.394,178.995,102.836,178.995,102.836z" />
								<path style="fill:#56548C;" d="M181.644,84.392c0,0,3.79,2.814,4.493,3.008c0.704,0.194,0.151-1.21-1.372-2.444
								C183.242,83.721,181.644,84.392,181.644,84.392z" />
								<path style="fill:#56548C;" d="M194.211,92.844c0,0-3.486-1.984-3.827-2.467c-0.342-0.483,1.092-0.541,2.59,0.221
								C194.471,91.358,194.211,92.844,194.211,92.844z" />
								<path style="fill:#EC827D;" d="M183.917,101.421c0,0-2.95-1.598-5.689-4.586c0,0-1.059,1.252-0.639,2.523
								c0.419,1.272,2.516,3.039,3.91,3.18C182.892,102.68,183.917,101.421,183.917,101.421z" />
								<path style="fill:#F9FBFC;" d="M178.228,96.835c2.739,2.988,5.689,4.586,5.689,4.586s-0.143,0.174-0.392,0.385
								c-1.815-0.772-3.897-2.125-5.714-4.304C178.01,97.101,178.228,96.835,178.228,96.835z" />
							</g>
							<path style="fill:#FFC8AF;" d="M107.843,240.576c-0.356-0.879-0.736-1.805-1.283-2.637c-1.996-3.089-2.4,0.879-2.162,2.613
							c0.095,0.784,1.283,3.991,2.328,7.317c1.283,4.015,2.4,8.22,1.212,8.529c-0.594,0.166-1.378,0.166-2.257,0
							c-2.233-0.309-5.084-1.449-6.985-2.59c-2.661-1.616-4.87-4.68-6.058-10.168c-1.093-5.084-1.616-15.3-1.616-15.3
							c-0.071-0.927-0.143-1.877-0.238-2.851c5.369-2.21,12.33-1.592,15.11,0c-0.071,2.019-0.119,3.207-0.119,3.207
							s2.471,1.972,3.611,3.944c0.238,0.404,0.428,0.832,0.499,1.212c0.475,2.257,2.732,9.788,1.711,10.24
							C109.364,245.043,108.77,242.976,107.843,240.576z" />
							<path style="fill:#C3D3DD;" d="M150.985,110.54l-2.393,11.715l4.915,5.325l-3.768,5.161l2.785,18.924
							c0,0-4.014-18.76-3.932-19.006c0.082-0.246,3.605-5.079,3.605-5.079l-5.161-5.161L150.985,110.54z" />
							<path style="fill:#F0F5F7;" d="M174.65,109.528c0.321,14.119-1.318,31.487-2.137,40.335
							c-0.819,8.848-3.932,65.866-3.932,65.866h10.227c0,0-0.068-54.602,1.161-58.411c1.229-3.809,2.703-6.144,2.826-8.725
							c0.123-2.581-2.041-36.452-2.041-36.452L174.65,109.528z" />
							<polygon style="fill:#C3D3DD;" points="177.756,112.617 179.259,124.712 175.691,129.054 178.125,133.595 174.234,153.14 
							179.259,133.764 176.746,128.89 180.378,124.958 						" />
							<path style="fill:#F4B298;" d="M177.23,106.915c-3.358-1.033-8.649-7.223-8.649-7.223l3.423,8.537l1.244-3.12L177.23,106.915z
							" />
						</g>
					</g>
					<rect x="105.336" y="189.042" style="opacity:0.6;fill:#56548C;" width="118.625" height="24.696" />
					<g>

						<linearGradient id="SVGID_00000101090154395486406760000010679221706530132613_"
							gradientUnits="userSpaceOnUse" x1="177.5461" y1="193.0796" x2="187.1423" y2="209.7007">
							<stop offset="0" style="stop-color:#DF697B" />
							<stop offset="1" style="stop-color:#BE2773" />
						</linearGradient>
						<circle style="fill:url(#SVGID_00000101090154395486406760000010679221706530132613_);"
							cx="182.344" cy="201.39" r="9.595" />

						<linearGradient id="SVGID_00000056424898088565123060000003450648121681995915_"
							gradientUnits="userSpaceOnUse" x1="142.1552" y1="193.0796" x2="151.7514" y2="209.7007">
							<stop offset="0" style="stop-color:#68ACFF" />
							<stop offset="0.2291" style="stop-color:#65A7FF" />
							<stop offset="0.4985" style="stop-color:#5B99FF" />
							<stop offset="0.787" style="stop-color:#4A81FF" />
							<stop offset="1" style="stop-color:#3B6BFF" />
						</linearGradient>
						<circle style="fill:url(#SVGID_00000056424898088565123060000003450648121681995915_);"
							cx="146.953" cy="201.39" r="9.595" />
						<path style="fill:#F8FAFB;" d="M187.352,199.304l-2.668,1.54v-1.751c0-0.391-0.317-0.708-0.708-0.708h-4.595
						c-0.391,0-0.708,0.317-0.708,0.708v4.595c0,0.391,0.317,0.708,0.708,0.708h4.595c0.391,0,0.708-0.317,0.708-0.708v-1.751
						l2.668,1.54V199.304z" />
						<path id="XMLID_5_" style="fill:#F8FAFB;" d="M151.891,204.452l-1.374-1.4c0,0-0.37-0.342-0.714-0.132l-0.766,0.819
						l-0.217,0.262c-0.381,0.434-1.44-0.491-1.44-0.491c-0.792-0.408-2.559-2.476-2.559-2.476c-0.87-1.006-0.381-1.44-0.381-1.44
						l0.246-0.245l0.842-0.815c0,0,0.464-0.272-0.789-1.333l-1.413-1.442c0,0-0.382-0.354-0.735-0.137l-0.788,0.844l-0.246,0.244
						c-0.598,0.899-0.326,2.422-0.326,2.422c1.032,3.889,5.494,6.827,5.494,6.827c3.754,2.284,4.87,0.788,4.87,0.788l0.243-0.208
						l0.819-0.792C152.657,205.749,153.106,205.483,151.891,204.452z" />
					</g>
				</g>
				<g>
					<path style="fill:#FFC8AF;" d="M304.693,198.133c0.238,0.546,0.475,1.117,0.713,1.687c0.048,0.071,0.071,0.143,0.095,0.214
					c0.76,1.71-0.76,5.037-4.775,6.676c-4.205,1.734-11.142,2.138-12.71-1.164c-0.879-1.901-1.996-4.276-1.996-4.276l-5.084,1.639
					c-0.428-0.19-0.855-0.38-1.235-0.546c-6.628-3.041-8.648-5.844-12.021-12.71c-0.048-0.119-0.119-0.238-0.166-0.356
					c-0.843-1.719-1.493-3.534-1.913-5.403c-0.374-1.663-1.107-4.1,0.13-5.543c0.557-0.65,1.324-1.079,2.08-1.479
					c1.224-0.648,2.469-1.257,3.731-1.827c1.842-0.832,3.754-1.587,5.766-1.788c3.121-0.311,6.304,0.776,8.776,2.708
					c1.511,1.182,2.768,2.666,3.756,4.306c0.428,0.711,1.566,4.342,2.692,3.965c1.281-0.43-0.88-5.987-0.88-5.987
					c0.618-1.117,1.829-2.495,3.825-1.14c2.685,1.829,2.471,6.415,1.14,8.315c0,0,3.207,7.84,6.438,8.79
					C303.053,194.212,303.79,195.994,304.693,198.133z" />
					<path style="fill:#BABCBE;"
						d="M266.989,277.365h6.51h12.354v3.991h-38.82v-3.991c1.307,0,2.043,0,2.043,0H266.989z" />
					<path style="fill:#BABCBE;" d="M245.845,261.732l3.231,15.633c0,0-0.737,0-2.043,0l-11.071-53.455c1.33,0,2.067,0,2.067,0
					L245.845,261.732z" />
					<polygon style="fill:#CFD1D2;" points="247.033,277.365 247.033,281.356 176.828,281.356 176.828,277.365 246.248,277.365 				
					" />
					<path style="fill:#CFD1D2;" d="M235.961,223.91l11.071,53.455h-0.784h-69.42l-11.071-53.455h68.708
					C235.035,223.91,235.534,223.91,235.961,223.91z" />
					<path style="fill:#F0F1F1;" d="M209.008,251.177c0.882,2.647-0.217,5.398-2.456,6.144c-2.239,0.746-4.769-0.794-5.651-3.442
					c-0.883-2.647,0.217-5.398,2.456-6.144C205.595,246.989,208.126,248.53,209.008,251.177z" />

					<linearGradient id="SVGID_00000096766021649826400310000007852286068605913219_"
						gradientUnits="userSpaceOnUse" x1="238.5491" y1="348.6383" x2="281.5464" y2="423.1119">
						<stop offset="0" style="stop-color:#5B2A8D" />
						<stop offset="0.1693" style="stop-color:#4B2786" />
						<stop offset="0.4267" style="stop-color:#38247D" />
						<stop offset="0.6972" style="stop-color:#2E2379" />
						<stop offset="1" style="stop-color:#2A2277" />
					</linearGradient>
					<path style="fill:url(#SVGID_00000096766021649826400310000007852286068605913219_);"
						d="M274.592,425.875l0.071,1.212
					c-15.181,4.847-23.259,0-23.259,0s-7.009-29.412-12.425-57.494l18.911-32.121c0,0,2.019-0.713,5.607-1.806L274.592,425.875z" />
					<path style="fill:#112B46;" d="M274.663,427.086l0.927,16.013h-42.194c-15.847,0,18.008-16.013,18.008-16.013
					S259.482,431.933,274.663,427.086z" />
					<path style="fill:#112B46;" d="M203.484,429.866l-2.946,13.233h-41.196c-15.846,0,18.008-16.013,18.008-16.013
					S186.45,432.574,203.484,429.866z" />

					<linearGradient id="SVGID_00000149352424276659419090000003302667241424231834_"
						gradientUnits="userSpaceOnUse" x1="233.9875" y1="318.0549" x2="274.7773" y2="388.705">
						<stop offset="0" style="stop-color:#5B2A8D" />
						<stop offset="0.1693" style="stop-color:#4B2786" />
						<stop offset="0.4267" style="stop-color:#38247D" />
						<stop offset="0.6972" style="stop-color:#2E2379" />
						<stop offset="1" style="stop-color:#2A2277" />
					</linearGradient>
					<path style="fill:url(#SVGID_00000149352424276659419090000003302667241424231834_);" d="M238.979,369.592l-35.494,60.273
					c-17.034,2.708-26.133-2.78-26.133-2.78s51.032-96.837,56.116-106.981c4.585-9.194,55.831-25.041,65.714-28.034
					c10.501,0,25.587,1.235,36.112,5.345c6.724,2.59,11.57,6.367,12.212,11.713c-4.704,10.548-15.443,13.97-35.209,16.203
					c-20.907,2.352-39.771,7.555-48.798,10.335c-3.587,1.093-5.607,1.806-5.607,1.806L238.979,369.592z" />

					<linearGradient id="SVGID_00000042004949182434151340000012718814492156262278_"
						gradientUnits="userSpaceOnUse" x1="269.3557" y1="158.198" x2="293.3748" y2="199.8004">
						<stop offset="0" style="stop-color:#4136EB" />
						<stop offset="0.2634" style="stop-color:#4123C8" />
						<stop offset="0.577" style="stop-color:#4210A5" />
						<stop offset="0.8338" style="stop-color:#42048F" />
						<stop offset="1" style="stop-color:#420087" />
					</linearGradient>
					<path style="fill:url(#SVGID_00000042004949182434151340000012718814492156262278_);"
						d="M301.09,175.933
					c0.597,2.654,1.037,5.355,1.369,8.087c0.073,0.597,0.42,10.141,0.594,10.192c-3.231-0.95-6.438-8.79-6.438-8.79
					c1.33-1.901,1.544-6.486-1.14-8.315c-1.996-1.354-3.207,0.024-3.825,1.14c0,0,2.162,5.559,0.879,5.987
					c-1.283,0.451-2.827-4.894-4.728-5.512c-1.662-0.54-3.401-1.085-4.912-1.982c-1.645-0.976-2.673-2.119-4.788-1.732
					c-1.402,0.257-2.665,0.983-3.937,1.628c-1.795,0.909-3.663,1.673-5.581,2.282c-2.044,0.649-4.175,1.125-6.316,1.016
					c-2.141-0.109-4.308-0.85-5.83-2.36c-0.609-0.604-1.104-1.316-1.497-2.078c-1.159-2.243-1.38-5.091-0.061-7.244
					c0.964-1.574,2.648-2.621,4.434-3.086c1.786-0.465,3.673-0.395,5.496-0.107c0.62-3.997,3.925-7.435,7.895-8.213
					c1.461-0.286,3.167-0.16,4.161,0.95c1.58-1.627,3.704-2.846,5.971-2.878c2.268-0.032,4.617,1.338,5.289,3.504
					c1.747-0.788,3.911-0.557,5.453,0.581c1.169,0.862,1.94,2.15,2.625,3.43C298.5,166.731,300.039,171.26,301.09,175.933z" />
					<path style="fill:#A5B7C6;" d="M340.638,264.037l-5.844,0.642c-2.732-12.734-6.676-31.146-6.937-32.453
					C333.083,245.221,340.638,264.037,340.638,264.037z" />
					<path style="fill:#A5B7C6;"
						d="M350.498,288.65c0.142,8.862-0.737,15.466-2.993,20.479c-0.642-5.346-5.488-9.123-12.212-11.713
					c1.877-4.063,2.518-9.812,2.138-16.274c4.205,0.119,8.577,0.285,12.52,0.166C350.189,283.803,350.379,286.274,350.498,288.65z" />
					<path style="fill:#C3D3DD;" d="M332.014,281c0.808,0.024,1.616,0.048,2.4,0.071c0.998,0.024,1.996,0.048,3.017,0.071
					c0.38,6.462-0.261,12.211-2.138,16.274c-10.525-4.11-25.611-5.345-36.112-5.345c-0.618-2.091-2.067-6.866-3.801-12.806
					c4.063,0.475,7.745-0.95,7.745-0.95S319.256,280.548,332.014,281z" />
					<path style="fill:#C3D3DD;" d="M327.856,232.225c0.261,1.307,4.205,19.719,6.937,32.453l5.844-0.642
					C340.638,264.037,333.083,245.221,327.856,232.225z M349.951,281.309c-3.944,0.119-8.315-0.048-12.52-0.166
					c-1.022-0.024-2.019-0.048-3.017-0.071c-0.784-0.024-1.592-0.047-2.4-0.071c0.451-8.648-3.136-14.421-3.944-15.585
					l-22.665,2.494c0,0-8.41-2.186-14.231-2.898c-4.015-13.518-7.935-26.799-7.935-26.799l-11.024,28.604
					c-1.853,5.013-3.374,8.363-5.227,10.548h-17.913l-3.231-15.633c4.11-0.475,6.747-0.76,6.747-0.76
					c3.231-11.689,12.354-40.483,14.088-47.112c1.331-4.989,5.963-8.862,13.019-11.499c0.38,0.166,0.808,0.356,1.235,0.546
					l5.084-1.639c0,0,1.117,2.376,1.996,4.276c1.568,3.302,8.505,2.898,12.71,1.164c4.015-1.639,5.536-4.965,4.775-6.676
					c-0.024-0.071-0.047-0.143-0.095-0.214c-0.238-0.57-0.475-1.14-0.713-1.687c11.784-0.784,23.948-0.38,30.054,3.706l0.047-0.071
					c12.069,7.246,29.958,64.692,29.151,72.889C363.446,279.622,357.483,281.023,349.951,281.309z" />

					<linearGradient id="SVGID_00000120545039530415248010000004303584601294395314_"
						gradientUnits="userSpaceOnUse" x1="274.8888" y1="217.9593" x2="312.6248" y2="283.32">
						<stop offset="0" style="stop-color:#5B2A8D" />
						<stop offset="0.1693" style="stop-color:#4B2786" />
						<stop offset="0.4267" style="stop-color:#38247D" />
						<stop offset="0.6972" style="stop-color:#2E2379" />
						<stop offset="1" style="stop-color:#2A2277" />
					</linearGradient>
					<polygon style="fill:url(#SVGID_00000120545039530415248010000004303584601294395314_);" points="290.811,208.767 
					290.3,286.511 295.746,293.065 301.952,286.347 293.629,208.559 				" />
					<path style="fill:#FFC8AF;" d="M291.174,265.011c5.821,0.713,14.231,2.898,14.231,2.898l22.665-2.494
					c0.808,1.164,4.395,6.937,3.944,15.585c-12.758-0.451-28.889-2.685-28.889-2.685s-3.682,1.426-7.745,0.95
					c-0.57-0.071-1.117-0.166-1.687-0.309c-4.633-1.164-6.462-4.039-7.698-4.086c-1.259-0.071-6.557,0.879-9.812,1.687
					c-0.974,0.261-1.901,0.356-2.685,0.356c-1.829,0-2.898-0.618-2.21-1.592c0.998-1.378,2.661-4.514,4.419-5.464
					c1.782-0.95,7.769-4.918,11.974-5.084C288.609,264.726,289.82,264.821,291.174,265.011z" />
					<path style="fill:#DCE8EF;" d="M292.531,205.673l7.865,4.404c0,0,2.965-2.323,4.915-4.915c3.482-4.629,3.809-7.355,3.809-7.355
					l-5.585-2.432C303.536,195.374,297.938,202.109,292.531,205.673z" />
					<polygon style="fill:#DCE8EF;"
						points="290.319,205.734 286.141,210.077 283.874,201.96 286.019,201.269 				" />

					<linearGradient id="SVGID_00000073679669538448038670000008265385035722506149_"
						gradientUnits="userSpaceOnUse" x1="288.4893" y1="207.2196" x2="295.9141" y2="207.2196">
						<stop offset="0" style="stop-color:#5B2A8D" />
						<stop offset="0.1693" style="stop-color:#4B2786" />
						<stop offset="0.4267" style="stop-color:#38247D" />
						<stop offset="0.6972" style="stop-color:#2E2379" />
						<stop offset="1" style="stop-color:#2A2277" />
					</linearGradient>
					<path style="fill:url(#SVGID_00000073679669538448038670000008265385035722506149_);" d="M290.319,205.734l2.212-0.062
					l3.383,1.894c0,0-1.581,1.24-4.161,1.199s-3.264-1.13-3.264-1.13L290.319,205.734z" />
					<path style="fill:#DCE8EF;" d="M323.686,265.897c0.12-0.707,5.281-1.934,7.37-1.136c2.089,0.798,3.871,8.457,4.178,11.017
					s0.43,4.503,0,5.221c-0.43,0.719-7.017,0.716-7.963-0.235c-0.946-0.951,0.344-2.523-0.578-7.758
					S323.686,265.897,323.686,265.897z" />
				</g>
				<g>
					<rect x="126.332" y="291.477" style="fill:#CFD1D2;" width="7.626" height="151.622" />
					<rect x="385.838" y="291.477" style="fill:#CFD1D2;" width="7.602" height="151.622" />
					<rect x="126.332" y="291.477" style="fill:#BABCBE;" width="7.626" height="8.138" />
					<rect x="385.838" y="291.477" style="fill:#BABCBE;" width="7.602" height="8.138" />
					<polygon style="fill:#F0F1F1;" points="397.04,281.356 397.04,291.477 385.089,291.477 378.89,291.477 140.311,291.477 
					134.093,291.477 122.161,291.477 122.161,281.356 270.031,281.356 301.682,281.356 358.92,281.356 				" />
				</g>
				<g>
					<path style="fill:#112B46;" d="M281.564,186.012c0,1.123-0.91,2.033-2.033,2.033c-1.123,0-2.033-0.91-2.033-2.033
					c0-1.123,0.91-2.033,2.033-2.033C280.654,183.979,281.564,184.889,281.564,186.012z" />
					<path style="fill:#112B46;" d="M272.337,188.833c0,0.984-0.798,1.782-1.782,1.782s-1.782-0.798-1.782-1.782
					c0-0.984,0.798-1.782,1.782-1.782S272.337,187.849,272.337,188.833z" />
					<path style="fill:#F4B298;" d="M275.245,194.212c0,0,2.622-1.299,3.072-1.34c0.451-0.041-0.041,0.755-1.106,1.34
					C276.146,194.798,275.245,194.212,275.245,194.212z" />
					<path style="fill:#F4B298;" d="M279.604,199.842c0,0,1.775-0.887,2.07-0.898c0.295-0.011,0.036,0.796-0.688,1.201
					C280.262,200.55,279.604,199.842,279.604,199.842z" />
					<path style="fill:#56548C;" d="M280.813,181.247c0,0-4.288,1.972-5.017,2.017c-0.729,0.045,0.101-1.215,1.846-2.109
					C279.387,180.261,280.813,181.247,280.813,181.247z" />
					<path style="fill:#56548C;" d="M266.774,186.928c0,0,3.82-1.223,4.254-1.626c0.434-0.402-0.957-0.754-2.579-0.318
					C266.826,185.421,266.774,186.928,266.774,186.928z" />
					<path style="fill:#EC827D;" d="M275.158,197.351c0,0,3.809-1.266,7.66-4.215c0,0,0.986,1.696,0.226,3.106
					c-0.76,1.411-3.6,3.055-5.271,2.93C276.103,199.048,275.158,197.351,275.158,197.351z" />
					<path style="fill:#F9FBFC;" d="M282.818,193.136c-3.851,2.949-7.66,4.215-7.66,4.215s0.132,0.235,0.382,0.536
					c2.299-0.53,5.035-1.689,7.631-3.878C283.019,193.495,282.818,193.136,282.818,193.136z" />
				</g>
				<path style="fill:#F4B298;" d="M296.615,185.422c-1.176,1.388-1.628,1.538-1.628,1.538s1.015,1.365,1.852,1.212
				C297.684,188.018,296.615,185.422,296.615,185.422z" />
				<path style="fill:#F4B298;" d="M292.947,179.348c0.002-0.208,0.019-0.429,0.142-0.596c0.118-0.161,0.315-0.245,0.51-0.287
				c0.795-0.171,1.634,0.28,2.09,0.953c0.456,0.673,0.579,1.523,0.536,2.335c-0.021,0.392-0.08,0.79-0.257,1.14
				c-0.281,0.559-0.866,0.953-1.49,1.003c-0.091,0.007-0.186,0.007-0.269-0.032c-0.09-0.043-0.153-0.126-0.21-0.208
				c-0.242-0.347-0.45-0.772-0.335-1.179c0.063-0.226,0.222-0.423,0.247-0.656c0.062-0.573-0.504-0.472-0.737-0.738
				C292.892,180.765,292.942,179.749,292.947,179.348z" />
				<path style="fill:#F4B298;"
					d="M286.019,201.269c2.58-0.941,3.194-0.999,3.194-0.999l-1.95,2.291L286.019,201.269z" />
			</g>
		</g>
	</g>
</svg>